<?xml version="1.0" encoding="utf-8" standalone="no"?>
<!DOCTYPE svg PUBLIC "-//W3C//DTD SVG 1.1//EN"
  "http://www.w3.org/Graphics/SVG/1.1/DTD/svg11.dtd">
<svg xmlns:xlink="http://www.w3.org/1999/xlink" width="504pt" height="288pt" viewBox="0 0 504 288" xmlns="http://www.w3.org/2000/svg" version="1.1">
 <metadata>
  <rdf:RDF xmlns:dc="http://purl.org/dc/elements/1.1/" xmlns:cc="http://creativecommons.org/ns#" xmlns:rdf="http://www.w3.org/1999/02/22-rdf-syntax-ns#">
   <cc:Work>
    <dc:type rdf:resource="http://purl.org/dc/dcmitype/StillImage"/>
    <dc:date>2024-03-08T15:04:30.188373</dc:date>
    <dc:format>image/svg+xml</dc:format>
    <dc:creator>
     <cc:Agent>
      <dc:title>Matplotlib v3.7.1, https://matplotlib.org/</dc:title>
     </cc:Agent>
    </dc:creator>
   </cc:Work>
  </rdf:RDF>
 </metadata>
 <defs>
  <style type="text/css">*{stroke-linejoin: round; stroke-linecap: butt}</style>
 </defs>
 <g id="figure_1">
  <g id="patch_1">
   <path d="M 0 288 
L 504 288 
L 504 0 
L 0 0 
z
" style="fill: #ffffff"/>
  </g>
  <g id="axes_1">
   <g id="patch_2">
    <path d="M 63 256.32 
L 453.6 256.32 
L 453.6 34.56 
L 63 34.56 
z
" style="fill: #ffffff"/>
   </g>
   <g id="matplotlib.axis_1">
    <g id="xtick_1">
     <g id="line2d_1">
      <defs>
       <path id="mf25263f2b7" d="M 0 0 
L 0 3.5 
" style="stroke: #000000; stroke-width: 0.8"/>
      </defs>
      <g>
       <use xlink:href="#mf25263f2b7" x="170.415" y="256.32" style="stroke: #000000; stroke-width: 0.8"/>
      </g>
     </g>
     <g id="text_1">
      <!-- -5 -->
      <g transform="translate(165.429844 270.918437) scale(0.1 -0.1)">
       <defs>
        <path id="DejaVuSans-2d" d="M 313 2009 
L 1997 2009 
L 1997 1497 
L 313 1497 
L 313 2009 
z
" transform="scale(0.015625)"/>
        <path id="DejaVuSans-35" d="M 691 4666 
L 3169 4666 
L 3169 4134 
L 1269 4134 
L 1269 2991 
Q 1406 3038 1543 3061 
Q 1681 3084 1819 3084 
Q 2600 3084 3056 2656 
Q 3513 2228 3513 1497 
Q 3513 744 3044 326 
Q 2575 -91 1722 -91 
Q 1428 -91 1123 -41 
Q 819 9 494 109 
L 494 744 
Q 775 591 1075 516 
Q 1375 441 1709 441 
Q 2250 441 2565 725 
Q 2881 1009 2881 1497 
Q 2881 1984 2565 2268 
Q 2250 2553 1709 2553 
Q 1456 2553 1204 2497 
Q 953 2441 691 2322 
L 691 4666 
z
" transform="scale(0.015625)"/>
       </defs>
       <use xlink:href="#DejaVuSans-2d"/>
       <use xlink:href="#DejaVuSans-35" x="36.083984"/>
      </g>
     </g>
    </g>
    <g id="xtick_2">
     <g id="line2d_2">
      <g>
       <use xlink:href="#mf25263f2b7" x="258.3" y="256.32" style="stroke: #000000; stroke-width: 0.8"/>
      </g>
     </g>
     <g id="text_2">
      <!-- 0 -->
      <g transform="translate(255.11875 270.918437) scale(0.1 -0.1)">
       <defs>
        <path id="DejaVuSans-30" d="M 2034 4250 
Q 1547 4250 1301 3770 
Q 1056 3291 1056 2328 
Q 1056 1369 1301 889 
Q 1547 409 2034 409 
Q 2525 409 2770 889 
Q 3016 1369 3016 2328 
Q 3016 3291 2770 3770 
Q 2525 4250 2034 4250 
z
M 2034 4750 
Q 2819 4750 3233 4129 
Q 3647 3509 3647 2328 
Q 3647 1150 3233 529 
Q 2819 -91 2034 -91 
Q 1250 -91 836 529 
Q 422 1150 422 2328 
Q 422 3509 836 4129 
Q 1250 4750 2034 4750 
z
" transform="scale(0.015625)"/>
       </defs>
       <use xlink:href="#DejaVuSans-30"/>
      </g>
     </g>
    </g>
    <g id="xtick_3">
     <g id="line2d_3">
      <g>
       <use xlink:href="#mf25263f2b7" x="346.185" y="256.32" style="stroke: #000000; stroke-width: 0.8"/>
      </g>
     </g>
     <g id="text_3">
      <!-- +5 -->
      <g transform="translate(338.813906 270.918437) scale(0.1 -0.1)">
       <defs>
        <path id="DejaVuSans-2b" d="M 2944 4013 
L 2944 2272 
L 4684 2272 
L 4684 1741 
L 2944 1741 
L 2944 0 
L 2419 0 
L 2419 1741 
L 678 1741 
L 678 2272 
L 2419 2272 
L 2419 4013 
L 2944 4013 
z
" transform="scale(0.015625)"/>
       </defs>
       <use xlink:href="#DejaVuSans-2b"/>
       <use xlink:href="#DejaVuSans-35" x="83.789062"/>
      </g>
     </g>
    </g>
    <g id="text_4">
     <!-- mm -->
     <g transform="translate(248.559375 284.596563) scale(0.1 -0.1)">
      <defs>
       <path id="DejaVuSans-6d" d="M 3328 2828 
Q 3544 3216 3844 3400 
Q 4144 3584 4550 3584 
Q 5097 3584 5394 3201 
Q 5691 2819 5691 2113 
L 5691 0 
L 5113 0 
L 5113 2094 
Q 5113 2597 4934 2840 
Q 4756 3084 4391 3084 
Q 3944 3084 3684 2787 
Q 3425 2491 3425 1978 
L 3425 0 
L 2847 0 
L 2847 2094 
Q 2847 2600 2669 2842 
Q 2491 3084 2119 3084 
Q 1678 3084 1418 2786 
Q 1159 2488 1159 1978 
L 1159 0 
L 581 0 
L 581 3500 
L 1159 3500 
L 1159 2956 
Q 1356 3278 1631 3431 
Q 1906 3584 2284 3584 
Q 2666 3584 2933 3390 
Q 3200 3197 3328 2828 
z
" transform="scale(0.015625)"/>
      </defs>
      <use xlink:href="#DejaVuSans-6d"/>
      <use xlink:href="#DejaVuSans-6d" x="97.412109"/>
     </g>
    </g>
   </g>
   <g id="matplotlib.axis_2">
    <g id="ytick_1">
     <g id="line2d_4">
      <path d="M 63 246.24 
L 453.6 246.24 
" clip-path="url(#pfc59c59db9)" style="fill: none; stroke: #b0b0b0; stroke-opacity: 0.3; stroke-width: 0.8; stroke-linecap: square"/>
     </g>
     <g id="line2d_5">
      <defs>
       <path id="me2f9167bf5" d="M 0 0 
L -3.5 0 
" style="stroke: #000000; stroke-width: 0.8"/>
      </defs>
      <g>
       <use xlink:href="#me2f9167bf5" x="63" y="246.24" style="stroke: #000000; stroke-width: 0.8"/>
      </g>
     </g>
     <g id="text_5">
      <!-- 0 -->
      <g transform="translate(49.6375 250.039219) scale(0.1 -0.1)">
       <use xlink:href="#DejaVuSans-30"/>
      </g>
     </g>
    </g>
    <g id="ytick_2">
     <g id="line2d_6">
      <path d="M 63 205.92 
L 453.6 205.92 
" clip-path="url(#pfc59c59db9)" style="fill: none; stroke: #b0b0b0; stroke-opacity: 0.3; stroke-width: 0.8; stroke-linecap: square"/>
     </g>
     <g id="line2d_7">
      <g>
       <use xlink:href="#me2f9167bf5" x="63" y="205.92" style="stroke: #000000; stroke-width: 0.8"/>
      </g>
     </g>
     <g id="text_6">
      <!-- 200 -->
      <g transform="translate(36.9125 209.719219) scale(0.1 -0.1)">
       <defs>
        <path id="DejaVuSans-32" d="M 1228 531 
L 3431 531 
L 3431 0 
L 469 0 
L 469 531 
Q 828 903 1448 1529 
Q 2069 2156 2228 2338 
Q 2531 2678 2651 2914 
Q 2772 3150 2772 3378 
Q 2772 3750 2511 3984 
Q 2250 4219 1831 4219 
Q 1534 4219 1204 4116 
Q 875 4013 500 3803 
L 500 4441 
Q 881 4594 1212 4672 
Q 1544 4750 1819 4750 
Q 2544 4750 2975 4387 
Q 3406 4025 3406 3419 
Q 3406 3131 3298 2873 
Q 3191 2616 2906 2266 
Q 2828 2175 2409 1742 
Q 1991 1309 1228 531 
z
" transform="scale(0.015625)"/>
       </defs>
       <use xlink:href="#DejaVuSans-32"/>
       <use xlink:href="#DejaVuSans-30" x="63.623047"/>
       <use xlink:href="#DejaVuSans-30" x="127.246094"/>
      </g>
     </g>
    </g>
    <g id="ytick_3">
     <g id="line2d_8">
      <path d="M 63 165.6 
L 453.6 165.6 
" clip-path="url(#pfc59c59db9)" style="fill: none; stroke: #b0b0b0; stroke-opacity: 0.3; stroke-width: 0.8; stroke-linecap: square"/>
     </g>
     <g id="line2d_9">
      <g>
       <use xlink:href="#me2f9167bf5" x="63" y="165.6" style="stroke: #000000; stroke-width: 0.8"/>
      </g>
     </g>
     <g id="text_7">
      <!-- 400 -->
      <g transform="translate(36.9125 169.399219) scale(0.1 -0.1)">
       <defs>
        <path id="DejaVuSans-34" d="M 2419 4116 
L 825 1625 
L 2419 1625 
L 2419 4116 
z
M 2253 4666 
L 3047 4666 
L 3047 1625 
L 3713 1625 
L 3713 1100 
L 3047 1100 
L 3047 0 
L 2419 0 
L 2419 1100 
L 313 1100 
L 313 1709 
L 2253 4666 
z
" transform="scale(0.015625)"/>
       </defs>
       <use xlink:href="#DejaVuSans-34"/>
       <use xlink:href="#DejaVuSans-30" x="63.623047"/>
       <use xlink:href="#DejaVuSans-30" x="127.246094"/>
      </g>
     </g>
    </g>
    <g id="ytick_4">
     <g id="line2d_10">
      <path d="M 63 125.28 
L 453.6 125.28 
" clip-path="url(#pfc59c59db9)" style="fill: none; stroke: #b0b0b0; stroke-opacity: 0.3; stroke-width: 0.8; stroke-linecap: square"/>
     </g>
     <g id="line2d_11">
      <g>
       <use xlink:href="#me2f9167bf5" x="63" y="125.28" style="stroke: #000000; stroke-width: 0.8"/>
      </g>
     </g>
     <g id="text_8">
      <!-- 600 -->
      <g transform="translate(36.9125 129.079219) scale(0.1 -0.1)">
       <defs>
        <path id="DejaVuSans-36" d="M 2113 2584 
Q 1688 2584 1439 2293 
Q 1191 2003 1191 1497 
Q 1191 994 1439 701 
Q 1688 409 2113 409 
Q 2538 409 2786 701 
Q 3034 994 3034 1497 
Q 3034 2003 2786 2293 
Q 2538 2584 2113 2584 
z
M 3366 4563 
L 3366 3988 
Q 3128 4100 2886 4159 
Q 2644 4219 2406 4219 
Q 1781 4219 1451 3797 
Q 1122 3375 1075 2522 
Q 1259 2794 1537 2939 
Q 1816 3084 2150 3084 
Q 2853 3084 3261 2657 
Q 3669 2231 3669 1497 
Q 3669 778 3244 343 
Q 2819 -91 2113 -91 
Q 1303 -91 875 529 
Q 447 1150 447 2328 
Q 447 3434 972 4092 
Q 1497 4750 2381 4750 
Q 2619 4750 2861 4703 
Q 3103 4656 3366 4563 
z
" transform="scale(0.015625)"/>
       </defs>
       <use xlink:href="#DejaVuSans-36"/>
       <use xlink:href="#DejaVuSans-30" x="63.623047"/>
       <use xlink:href="#DejaVuSans-30" x="127.246094"/>
      </g>
     </g>
    </g>
    <g id="ytick_5">
     <g id="line2d_12">
      <path d="M 63 84.96 
L 453.6 84.96 
" clip-path="url(#pfc59c59db9)" style="fill: none; stroke: #b0b0b0; stroke-opacity: 0.3; stroke-width: 0.8; stroke-linecap: square"/>
     </g>
     <g id="line2d_13">
      <g>
       <use xlink:href="#me2f9167bf5" x="63" y="84.96" style="stroke: #000000; stroke-width: 0.8"/>
      </g>
     </g>
     <g id="text_9">
      <!-- 800 -->
      <g transform="translate(36.9125 88.759219) scale(0.1 -0.1)">
       <defs>
        <path id="DejaVuSans-38" d="M 2034 2216 
Q 1584 2216 1326 1975 
Q 1069 1734 1069 1313 
Q 1069 891 1326 650 
Q 1584 409 2034 409 
Q 2484 409 2743 651 
Q 3003 894 3003 1313 
Q 3003 1734 2745 1975 
Q 2488 2216 2034 2216 
z
M 1403 2484 
Q 997 2584 770 2862 
Q 544 3141 544 3541 
Q 544 4100 942 4425 
Q 1341 4750 2034 4750 
Q 2731 4750 3128 4425 
Q 3525 4100 3525 3541 
Q 3525 3141 3298 2862 
Q 3072 2584 2669 2484 
Q 3125 2378 3379 2068 
Q 3634 1759 3634 1313 
Q 3634 634 3220 271 
Q 2806 -91 2034 -91 
Q 1263 -91 848 271 
Q 434 634 434 1313 
Q 434 1759 690 2068 
Q 947 2378 1403 2484 
z
M 1172 3481 
Q 1172 3119 1398 2916 
Q 1625 2713 2034 2713 
Q 2441 2713 2670 2916 
Q 2900 3119 2900 3481 
Q 2900 3844 2670 4047 
Q 2441 4250 2034 4250 
Q 1625 4250 1398 4047 
Q 1172 3844 1172 3481 
z
" transform="scale(0.015625)"/>
       </defs>
       <use xlink:href="#DejaVuSans-38"/>
       <use xlink:href="#DejaVuSans-30" x="63.623047"/>
       <use xlink:href="#DejaVuSans-30" x="127.246094"/>
      </g>
     </g>
    </g>
    <g id="ytick_6">
     <g id="line2d_14">
      <path d="M 63 44.64 
L 453.6 44.64 
" clip-path="url(#pfc59c59db9)" style="fill: none; stroke: #b0b0b0; stroke-opacity: 0.3; stroke-width: 0.8; stroke-linecap: square"/>
     </g>
     <g id="line2d_15">
      <g>
       <use xlink:href="#me2f9167bf5" x="63" y="44.64" style="stroke: #000000; stroke-width: 0.8"/>
      </g>
     </g>
     <g id="text_10">
      <!-- 1000 -->
      <g transform="translate(30.55 48.439219) scale(0.1 -0.1)">
       <defs>
        <path id="DejaVuSans-31" d="M 794 531 
L 1825 531 
L 1825 4091 
L 703 3866 
L 703 4441 
L 1819 4666 
L 2450 4666 
L 2450 531 
L 3481 531 
L 3481 0 
L 794 0 
L 794 531 
z
" transform="scale(0.015625)"/>
       </defs>
       <use xlink:href="#DejaVuSans-31"/>
       <use xlink:href="#DejaVuSans-30" x="63.623047"/>
       <use xlink:href="#DejaVuSans-30" x="127.246094"/>
       <use xlink:href="#DejaVuSans-30" x="190.869141"/>
      </g>
     </g>
    </g>
    <g id="text_11">
     <!-- cells/mm -->
     <g transform="translate(24.470312 168.073594) rotate(-90) scale(0.1 -0.1)">
      <defs>
       <path id="DejaVuSans-63" d="M 3122 3366 
L 3122 2828 
Q 2878 2963 2633 3030 
Q 2388 3097 2138 3097 
Q 1578 3097 1268 2742 
Q 959 2388 959 1747 
Q 959 1106 1268 751 
Q 1578 397 2138 397 
Q 2388 397 2633 464 
Q 2878 531 3122 666 
L 3122 134 
Q 2881 22 2623 -34 
Q 2366 -91 2075 -91 
Q 1284 -91 818 406 
Q 353 903 353 1747 
Q 353 2603 823 3093 
Q 1294 3584 2113 3584 
Q 2378 3584 2631 3529 
Q 2884 3475 3122 3366 
z
" transform="scale(0.015625)"/>
       <path id="DejaVuSans-65" d="M 3597 1894 
L 3597 1613 
L 953 1613 
Q 991 1019 1311 708 
Q 1631 397 2203 397 
Q 2534 397 2845 478 
Q 3156 559 3463 722 
L 3463 178 
Q 3153 47 2828 -22 
Q 2503 -91 2169 -91 
Q 1331 -91 842 396 
Q 353 884 353 1716 
Q 353 2575 817 3079 
Q 1281 3584 2069 3584 
Q 2775 3584 3186 3129 
Q 3597 2675 3597 1894 
z
M 3022 2063 
Q 3016 2534 2758 2815 
Q 2500 3097 2075 3097 
Q 1594 3097 1305 2825 
Q 1016 2553 972 2059 
L 3022 2063 
z
" transform="scale(0.015625)"/>
       <path id="DejaVuSans-6c" d="M 603 4863 
L 1178 4863 
L 1178 0 
L 603 0 
L 603 4863 
z
" transform="scale(0.015625)"/>
       <path id="DejaVuSans-73" d="M 2834 3397 
L 2834 2853 
Q 2591 2978 2328 3040 
Q 2066 3103 1784 3103 
Q 1356 3103 1142 2972 
Q 928 2841 928 2578 
Q 928 2378 1081 2264 
Q 1234 2150 1697 2047 
L 1894 2003 
Q 2506 1872 2764 1633 
Q 3022 1394 3022 966 
Q 3022 478 2636 193 
Q 2250 -91 1575 -91 
Q 1294 -91 989 -36 
Q 684 19 347 128 
L 347 722 
Q 666 556 975 473 
Q 1284 391 1588 391 
Q 1994 391 2212 530 
Q 2431 669 2431 922 
Q 2431 1156 2273 1281 
Q 2116 1406 1581 1522 
L 1381 1569 
Q 847 1681 609 1914 
Q 372 2147 372 2553 
Q 372 3047 722 3315 
Q 1072 3584 1716 3584 
Q 2034 3584 2315 3537 
Q 2597 3491 2834 3397 
z
" transform="scale(0.015625)"/>
       <path id="DejaVuSans-2f" d="M 1625 4666 
L 2156 4666 
L 531 -594 
L 0 -594 
L 1625 4666 
z
" transform="scale(0.015625)"/>
      </defs>
      <use xlink:href="#DejaVuSans-63"/>
      <use xlink:href="#DejaVuSans-65" x="54.980469"/>
      <use xlink:href="#DejaVuSans-6c" x="116.503906"/>
      <use xlink:href="#DejaVuSans-6c" x="144.287109"/>
      <use xlink:href="#DejaVuSans-73" x="172.070312"/>
      <use xlink:href="#DejaVuSans-2f" x="224.169922"/>
      <use xlink:href="#DejaVuSans-6d" x="257.861328"/>
      <use xlink:href="#DejaVuSans-6d" x="355.273438"/>
     </g>
    </g>
   </g>
   <g id="line2d_16">
    <path d="M 80.754545 246.24 
L 134.018182 246.24 
L 134.905909 239.52 
L 135.793636 231.456 
L 136.681364 219.36 
L 137.569091 203.232 
L 138.456818 193.824 
L 139.344545 179.04 
L 140.232273 166.944 
L 141.12 157.536 
L 142.007727 138.72 
L 142.895455 126.624 
L 143.783182 117.216 
L 145.558636 109.152 
L 146.446364 103.776 
L 147.334091 95.712 
L 148.221818 90.336 
L 149.109545 83.616 
L 149.997273 79.584 
L 150.885 72.864 
L 151.772727 74.208 
L 152.660455 67.488 
L 153.548182 66.144 
L 154.435909 62.112 
L 155.323636 62.112 
L 156.211364 59.424 
L 157.099091 59.424 
L 157.986818 54.048 
L 158.874545 55.392 
L 159.762273 52.704 
L 160.65 52.704 
L 161.537727 51.36 
L 162.425455 51.36 
L 163.313182 50.016 
L 165.088636 50.016 
L 165.976364 48.672 
L 166.864091 45.984 
L 168.639545 48.672 
L 169.527273 45.984 
L 170.415 47.328 
L 171.302727 44.64 
L 172.190455 45.984 
L 173.078182 45.984 
L 173.965909 47.328 
L 174.853636 47.328 
L 175.741364 44.64 
L 176.629091 45.984 
L 177.516818 44.64 
L 178.404545 45.984 
L 179.292273 44.64 
L 182.843182 44.64 
L 183.730909 45.984 
L 184.618636 44.64 
L 217.464545 44.64 
L 218.352273 47.328 
L 219.24 44.64 
L 221.015455 44.64 
L 222.790909 47.328 
L 223.678636 44.64 
L 224.566364 45.984 
L 226.341818 45.984 
L 227.229545 44.64 
L 228.117273 48.672 
L 229.005 47.328 
L 231.668182 51.36 
L 232.555909 50.016 
L 233.443636 55.392 
L 234.331364 52.704 
L 235.219091 55.392 
L 236.106818 59.424 
L 236.994545 58.08 
L 237.882273 62.112 
L 238.77 70.176 
L 239.657727 72.864 
L 240.545455 76.896 
L 241.433182 111.84 
L 242.320909 125.28 
L 243.208636 134.688 
L 244.096364 125.28 
L 244.984091 98.4 
L 245.871818 111.84 
L 246.759545 122.592 
L 247.647273 110.496 
L 248.535 84.96 
L 249.422727 83.616 
L 250.310455 86.304 
L 251.198182 87.648 
L 252.085909 119.904 
L 252.973636 121.248 
L 253.861364 105.12 
L 254.749091 102.432 
L 255.636818 90.336 
L 256.524545 82.272 
L 257.412273 82.272 
L 258.3 79.584 
L 259.187727 84.96 
L 260.075455 86.304 
L 260.963182 101.088 
L 261.850909 105.12 
L 262.738636 127.968 
L 263.626364 123.936 
L 264.514091 132 
L 265.401818 145.44 
L 266.289545 129.312 
L 267.177273 122.592 
L 268.065 117.216 
L 268.952727 129.312 
L 269.840455 133.344 
L 270.728182 109.152 
L 271.615909 94.368 
L 272.503636 90.336 
L 273.391364 71.52 
L 274.279091 68.832 
L 276.054545 60.768 
L 276.942273 58.08 
L 277.83 59.424 
L 278.717727 55.392 
L 279.605455 54.048 
L 280.493182 51.36 
L 281.380909 52.704 
L 282.268636 51.36 
L 283.156364 48.672 
L 284.044091 47.328 
L 284.931818 48.672 
L 286.707273 48.672 
L 287.595 45.984 
L 288.482727 48.672 
L 289.370455 44.64 
L 290.258182 44.64 
L 291.145909 45.984 
L 292.033636 45.984 
L 292.921364 44.64 
L 293.809091 44.64 
L 294.696818 45.984 
L 295.584545 45.984 
L 296.472273 44.64 
L 298.247727 44.64 
L 299.135455 45.984 
L 300.023182 44.64 
L 325.767273 44.64 
L 326.655 45.984 
L 327.542727 44.64 
L 331.093636 44.64 
L 331.981364 45.984 
L 332.869091 45.984 
L 333.756818 44.64 
L 334.644545 45.984 
L 335.532273 44.64 
L 336.42 45.984 
L 337.307727 44.64 
L 338.195455 44.64 
L 339.083182 48.672 
L 339.970909 45.984 
L 340.858636 44.64 
L 341.746364 45.984 
L 344.409545 45.984 
L 345.297273 47.328 
L 346.185 44.64 
L 347.072727 47.328 
L 347.960455 48.672 
L 348.848182 47.328 
L 349.735909 48.672 
L 350.623636 47.328 
L 351.511364 48.672 
L 352.399091 48.672 
L 353.286818 50.016 
L 354.174545 54.048 
L 355.062273 51.36 
L 356.837727 54.048 
L 357.725455 54.048 
L 360.388636 58.08 
L 361.276364 58.08 
L 362.164091 60.768 
L 363.051818 60.768 
L 363.939545 66.144 
L 364.827273 66.144 
L 365.715 74.208 
L 366.602727 76.896 
L 367.490455 80.928 
L 368.378182 86.304 
L 369.265909 93.024 
L 370.153636 95.712 
L 371.929091 111.84 
L 372.816818 114.528 
L 373.704545 129.312 
L 374.592273 138.72 
L 379.030909 199.2 
L 379.918636 215.328 
L 381.694091 240.864 
L 382.581818 246.24 
L 434.957727 246.24 
L 434.957727 246.24 
" clip-path="url(#pfc59c59db9)" style="fill: none; stroke: #1f77b4; stroke-width: 1.5; stroke-linecap: square"/>
   </g>
   <g id="line2d_17">
    <path d="M 80.754545 246.24 
L 134.905909 246.238714 
L 135.793636 245.696949 
L 136.681364 238.558267 
L 138.456818 206.637608 
L 140.232273 175.063506 
L 142.007727 148.417892 
L 143.783182 126.762804 
L 145.558636 109.425293 
L 147.334091 95.649219 
L 149.109545 84.7508 
L 150.885 76.152646 
L 152.660455 69.3817 
L 154.435909 64.056454 
L 156.211364 59.872047 
L 157.986818 56.586265 
L 159.762273 54.0074 
L 161.537727 51.984116 
L 163.313182 50.39717 
L 165.088636 49.152734 
L 166.864091 48.177049 
L 168.639545 47.412176 
L 171.302727 46.563386 
L 173.965909 45.974469 
L 177.516818 45.45981 
L 181.955455 45.086516 
L 188.169545 44.833765 
L 197.046818 44.72142 
L 205.924091 44.81534 
L 210.362727 45.046295 
L 213.913636 45.473256 
L 216.576818 46.07977 
L 218.352273 46.716836 
L 220.127727 47.638683 
L 221.903182 48.973649 
L 222.790909 49.851724 
L 223.678636 50.909607 
L 224.566364 52.184902 
L 225.454091 53.723463 
L 226.341818 55.581396 
L 227.229545 57.827647 
L 228.117273 60.547385 
L 229.005 63.846549 
L 229.892727 67.858259 
L 230.780455 72.762056 
L 231.668182 79.040904 
L 232.555909 89.049776 
L 233.443636 105.622351 
L 235.219091 144.42601 
L 236.106818 159.770217 
L 236.994545 170.882049 
L 237.882273 177.83222 
L 238.77 180.875014 
L 239.657727 180.235468 
L 240.545455 175.167124 
L 241.433182 168.215425 
L 242.320909 164.099118 
L 243.208636 162.142758 
L 244.096364 161.67084 
L 244.984091 161.765484 
L 245.871818 162.252457 
L 246.759545 163.218972 
L 247.647273 163.994314 
L 248.535 164.505941 
L 249.422727 164.7571 
L 250.310455 164.798549 
L 255.636818 164.449998 
L 263.626364 164.536546 
L 266.289545 164.798549 
L 267.177273 164.7571 
L 268.065 164.505941 
L 268.952727 163.994314 
L 269.840455 163.218972 
L 270.728182 162.252457 
L 271.615909 161.765484 
L 272.503636 161.67084 
L 273.391364 162.142758 
L 274.279091 164.099118 
L 275.166818 168.215425 
L 276.054545 175.167124 
L 276.942273 180.235468 
L 277.83 180.875014 
L 278.717727 177.83222 
L 279.605455 170.882049 
L 280.493182 159.770217 
L 281.380909 144.42601 
L 284.044091 89.049776 
L 284.931818 79.040904 
L 285.819545 72.762056 
L 286.707273 67.858259 
L 287.595 63.846549 
L 288.482727 60.547385 
L 289.370455 57.827647 
L 290.258182 55.581396 
L 291.145909 53.723463 
L 292.033636 52.184902 
L 292.921364 50.909607 
L 293.809091 49.851724 
L 295.584545 48.244463 
L 297.36 47.135272 
L 299.135455 46.368979 
L 300.910909 45.839319 
L 303.574091 45.335176 
L 307.125 44.980872 
L 311.563636 44.790881 
L 319.553182 44.72142 
L 329.318182 44.857685 
L 335.532273 45.144078 
L 339.970909 45.565963 
L 343.521818 46.147391 
L 346.185 46.812634 
L 348.848182 47.771361 
L 350.623636 48.635246 
L 352.399091 49.737165 
L 354.174545 51.142492 
L 355.95 52.934429 
L 357.725455 55.218767 
L 359.500909 58.129865 
L 361.276364 61.8381 
L 363.051818 66.559043 
L 364.827273 72.564587 
L 366.602727 80.196074 
L 368.378182 89.878946 
L 370.153636 102.137187 
L 371.929091 117.602444 
L 373.704545 137.003192 
L 375.48 161.088492 
L 377.255455 190.315046 
L 379.918636 238.558267 
L 380.806364 245.696949 
L 381.694091 246.238714 
L 434.957727 246.24 
L 434.957727 246.24 
" clip-path="url(#pfc59c59db9)" style="fill: none; stroke-dasharray: 1.5,2.475; stroke-dashoffset: 0; stroke: #000000; stroke-width: 1.5"/>
   </g>
   <g id="LineCollection_1">
    <path d="M 370.952532 246.24 
L 370.952532 44.64 
" clip-path="url(#pfc59c59db9)" style="fill: none; stroke-dasharray: 5.55,2.4; stroke-dashoffset: 0; stroke: #00ffff; stroke-opacity: 0.5; stroke-width: 1.5"/>
    <path d="M 145.647468 246.24 
L 145.647468 44.64 
" clip-path="url(#pfc59c59db9)" style="fill: none; stroke-dasharray: 5.55,2.4; stroke-dashoffset: 0; stroke: #00ffff; stroke-opacity: 0.5; stroke-width: 1.5"/>
   </g>
   <g id="LineCollection_2">
    <path d="M 80.754545 163.821176 
L 435.845455 163.821176 
" clip-path="url(#pfc59c59db9)" style="fill: none; stroke: #000000; stroke-opacity: 0.3"/>
   </g>
   <g id="line2d_18">
    <path d="M 80.754545 246.24 
L 240.545455 246.24 
L 241.433182 219.36 
L 242.320909 209.952 
L 243.208636 207.264 
L 244.096364 216.672 
L 244.984091 238.176 
L 246.759545 216.672 
L 247.647273 227.424 
L 248.535 246.24 
L 250.310455 246.24 
L 251.198182 242.208 
L 252.085909 218.016 
L 252.973636 212.64 
L 253.861364 226.08 
L 254.749091 224.736 
L 255.636818 236.832 
L 256.524545 246.24 
L 260.075455 246.24 
L 260.963182 236.832 
L 261.850909 235.488 
L 262.738636 220.704 
L 263.626364 228.768 
L 264.514091 220.704 
L 265.401818 209.952 
L 266.289545 224.736 
L 267.177273 231.456 
L 268.065 230.112 
L 268.952727 218.016 
L 269.840455 211.296 
L 270.728182 227.424 
L 271.615909 235.488 
L 272.503636 234.144 
L 273.391364 246.24 
L 434.957727 246.24 
L 434.957727 246.24 
" clip-path="url(#pfc59c59db9)" style="fill: none; stroke: #d62728; stroke-width: 1.5; stroke-linecap: square"/>
   </g>
   <g id="line2d_19">
    <path d="M 80.754545 246.24 
L 230.780455 246.228481 
L 231.668182 245.939424 
L 232.555909 243.277042 
L 233.443636 235.532859 
L 234.331364 225.568727 
L 235.219091 217.138515 
L 236.106818 211.870492 
L 236.994545 209.706157 
L 237.882273 209.924304 
L 238.77 211.812779 
L 239.657727 214.975629 
L 241.433182 226.321711 
L 242.320909 229.145391 
L 243.208636 230.027621 
L 244.096364 229.805387 
L 245.871818 228.834797 
L 246.759545 228.030185 
L 247.647273 227.496386 
L 248.535 227.217438 
L 249.422727 227.142451 
L 255.636818 227.548246 
L 265.401818 227.326463 
L 267.177273 227.142451 
L 268.065 227.217438 
L 268.952727 227.496386 
L 269.840455 228.030185 
L 270.728182 228.834797 
L 272.503636 229.805387 
L 273.391364 230.027621 
L 274.279091 229.145391 
L 275.166818 226.321711 
L 276.942273 214.975629 
L 277.83 211.812779 
L 278.717727 209.924304 
L 279.605455 209.706157 
L 280.493182 211.870492 
L 281.380909 217.138515 
L 282.268636 225.568727 
L 283.156364 235.532859 
L 284.044091 243.277042 
L 284.931818 245.939424 
L 285.819545 246.228481 
L 294.696818 246.24 
L 434.957727 246.24 
L 434.957727 246.24 
" clip-path="url(#pfc59c59db9)" style="fill: none; stroke-dasharray: 1.5,2.475; stroke-dashoffset: 0; stroke: #000000; stroke-width: 1.5"/>
   </g>
   <g id="LineCollection_3">
    <path d="M 240.545455 246.24 
L 240.545455 44.64 
" clip-path="url(#pfc59c59db9)" style="fill: none; stroke-dasharray: 5.55,2.4; stroke-dashoffset: 0; stroke: #d62728; stroke-opacity: 0.5; stroke-width: 1.5"/>
    <path d="M 276.054545 246.24 
L 276.054545 44.64 
" clip-path="url(#pfc59c59db9)" style="fill: none; stroke-dasharray: 5.55,2.4; stroke-dashoffset: 0; stroke: #d62728; stroke-opacity: 0.5; stroke-width: 1.5"/>
   </g>
   <g id="LineCollection_4">
    <path d="M 80.754545 227.775311 
L 435.845455 227.775311 
" clip-path="url(#pfc59c59db9)" style="fill: none; stroke: #000000; stroke-opacity: 0.3"/>
   </g>
   <g id="patch_3">
    <path d="M 63 256.32 
L 63 34.56 
" style="fill: none; stroke: #000000; stroke-width: 0.8; stroke-linejoin: miter; stroke-linecap: square"/>
   </g>
   <g id="patch_4">
    <path d="M 453.6 256.32 
L 453.6 34.56 
" style="fill: none; stroke: #000000; stroke-width: 0.8; stroke-linejoin: miter; stroke-linecap: square"/>
   </g>
   <g id="patch_5">
    <path d="M 63 256.32 
L 453.6 256.32 
" style="fill: none; stroke: #000000; stroke-width: 0.8; stroke-linejoin: miter; stroke-linecap: square"/>
   </g>
   <g id="patch_6">
    <path d="M 63 34.56 
L 453.6 34.56 
" style="fill: none; stroke: #000000; stroke-width: 0.8; stroke-linejoin: miter; stroke-linecap: square"/>
   </g>
   <g id="text_12">
    <!-- h=1000 -->
    <g transform="translate(234.199688 28.56) scale(0.12 -0.12)">
     <defs>
      <path id="DejaVuSans-68" d="M 3513 2113 
L 3513 0 
L 2938 0 
L 2938 2094 
Q 2938 2591 2744 2837 
Q 2550 3084 2163 3084 
Q 1697 3084 1428 2787 
Q 1159 2491 1159 1978 
L 1159 0 
L 581 0 
L 581 4863 
L 1159 4863 
L 1159 2956 
Q 1366 3272 1645 3428 
Q 1925 3584 2291 3584 
Q 2894 3584 3203 3211 
Q 3513 2838 3513 2113 
z
" transform="scale(0.015625)"/>
      <path id="DejaVuSans-3d" d="M 678 2906 
L 4684 2906 
L 4684 2381 
L 678 2381 
L 678 2906 
z
M 678 1631 
L 4684 1631 
L 4684 1100 
L 678 1100 
L 678 1631 
z
" transform="scale(0.015625)"/>
     </defs>
     <use xlink:href="#DejaVuSans-68"/>
     <use xlink:href="#DejaVuSans-3d" x="63.378906"/>
     <use xlink:href="#DejaVuSans-31" x="147.167969"/>
     <use xlink:href="#DejaVuSans-30" x="210.791016"/>
     <use xlink:href="#DejaVuSans-30" x="274.414062"/>
     <use xlink:href="#DejaVuSans-30" x="338.037109"/>
    </g>
   </g>
   <g id="legend_1">
    <g id="patch_7">
     <path d="M 362.728047 195.669766 
L 446.95 195.669766 
Q 448.85 195.669766 448.85 193.769766 
L 448.85 97.110234 
Q 448.85 95.210234 446.95 95.210234 
L 362.728047 95.210234 
Q 360.828047 95.210234 360.828047 97.110234 
L 360.828047 193.769766 
Q 360.828047 195.669766 362.728047 195.669766 
z
" style="fill: #ffffff; opacity: 0.8; stroke: #cccccc; stroke-linejoin: miter"/>
    </g>
    <g id="line2d_20">
     <path d="M 364.628047 102.90375 
L 374.128047 102.90375 
L 383.628047 102.90375 
" style="fill: none; stroke: #1f77b4; stroke-width: 1.5; stroke-linecap: square"/>
    </g>
    <g id="text_13">
     <!-- ABM $u$ -->
     <g transform="translate(391.228047 106.22875) scale(0.095 -0.095)">
      <defs>
       <path id="DejaVuSans-41" d="M 2188 4044 
L 1331 1722 
L 3047 1722 
L 2188 4044 
z
M 1831 4666 
L 2547 4666 
L 4325 0 
L 3669 0 
L 3244 1197 
L 1141 1197 
L 716 0 
L 50 0 
L 1831 4666 
z
" transform="scale(0.015625)"/>
       <path id="DejaVuSans-42" d="M 1259 2228 
L 1259 519 
L 2272 519 
Q 2781 519 3026 730 
Q 3272 941 3272 1375 
Q 3272 1813 3026 2020 
Q 2781 2228 2272 2228 
L 1259 2228 
z
M 1259 4147 
L 1259 2741 
L 2194 2741 
Q 2656 2741 2882 2914 
Q 3109 3088 3109 3444 
Q 3109 3797 2882 3972 
Q 2656 4147 2194 4147 
L 1259 4147 
z
M 628 4666 
L 2241 4666 
Q 2963 4666 3353 4366 
Q 3744 4066 3744 3513 
Q 3744 3084 3544 2831 
Q 3344 2578 2956 2516 
Q 3422 2416 3680 2098 
Q 3938 1781 3938 1306 
Q 3938 681 3513 340 
Q 3088 0 2303 0 
L 628 0 
L 628 4666 
z
" transform="scale(0.015625)"/>
       <path id="DejaVuSans-4d" d="M 628 4666 
L 1569 4666 
L 2759 1491 
L 3956 4666 
L 4897 4666 
L 4897 0 
L 4281 0 
L 4281 4097 
L 3078 897 
L 2444 897 
L 1241 4097 
L 1241 0 
L 628 0 
L 628 4666 
z
" transform="scale(0.015625)"/>
       <path id="DejaVuSans-20" transform="scale(0.015625)"/>
       <path id="DejaVuSans-Oblique-75" d="M 428 1388 
L 838 3500 
L 1416 3500 
L 1006 1409 
Q 975 1256 961 1147 
Q 947 1038 947 966 
Q 947 700 1109 554 
Q 1272 409 1569 409 
Q 2031 409 2368 721 
Q 2706 1034 2809 1563 
L 3194 3500 
L 3769 3500 
L 3091 0 
L 2516 0 
L 2631 550 
Q 2388 244 2052 76 
Q 1716 -91 1338 -91 
Q 878 -91 622 161 
Q 366 413 366 863 
Q 366 956 381 1097 
Q 397 1238 428 1388 
z
" transform="scale(0.015625)"/>
      </defs>
      <use xlink:href="#DejaVuSans-41" transform="translate(0 0.09375)"/>
      <use xlink:href="#DejaVuSans-42" transform="translate(68.408203 0.09375)"/>
      <use xlink:href="#DejaVuSans-4d" transform="translate(137.011719 0.09375)"/>
      <use xlink:href="#DejaVuSans-20" transform="translate(223.291016 0.09375)"/>
      <use xlink:href="#DejaVuSans-Oblique-75" transform="translate(255.078125 0.09375)"/>
     </g>
    </g>
    <g id="line2d_21">
     <path d="M 364.628047 116.847969 
L 374.128047 116.847969 
L 383.628047 116.847969 
" style="fill: none; stroke-dasharray: 1.5,2.475; stroke-dashoffset: 0; stroke: #000000; stroke-width: 1.5"/>
    </g>
    <g id="text_14">
     <!-- Cont. $u$ -->
     <g transform="translate(391.228047 120.172969) scale(0.095 -0.095)">
      <defs>
       <path id="DejaVuSans-43" d="M 4122 4306 
L 4122 3641 
Q 3803 3938 3442 4084 
Q 3081 4231 2675 4231 
Q 1875 4231 1450 3742 
Q 1025 3253 1025 2328 
Q 1025 1406 1450 917 
Q 1875 428 2675 428 
Q 3081 428 3442 575 
Q 3803 722 4122 1019 
L 4122 359 
Q 3791 134 3420 21 
Q 3050 -91 2638 -91 
Q 1578 -91 968 557 
Q 359 1206 359 2328 
Q 359 3453 968 4101 
Q 1578 4750 2638 4750 
Q 3056 4750 3426 4639 
Q 3797 4528 4122 4306 
z
" transform="scale(0.015625)"/>
       <path id="DejaVuSans-6f" d="M 1959 3097 
Q 1497 3097 1228 2736 
Q 959 2375 959 1747 
Q 959 1119 1226 758 
Q 1494 397 1959 397 
Q 2419 397 2687 759 
Q 2956 1122 2956 1747 
Q 2956 2369 2687 2733 
Q 2419 3097 1959 3097 
z
M 1959 3584 
Q 2709 3584 3137 3096 
Q 3566 2609 3566 1747 
Q 3566 888 3137 398 
Q 2709 -91 1959 -91 
Q 1206 -91 779 398 
Q 353 888 353 1747 
Q 353 2609 779 3096 
Q 1206 3584 1959 3584 
z
" transform="scale(0.015625)"/>
       <path id="DejaVuSans-6e" d="M 3513 2113 
L 3513 0 
L 2938 0 
L 2938 2094 
Q 2938 2591 2744 2837 
Q 2550 3084 2163 3084 
Q 1697 3084 1428 2787 
Q 1159 2491 1159 1978 
L 1159 0 
L 581 0 
L 581 3500 
L 1159 3500 
L 1159 2956 
Q 1366 3272 1645 3428 
Q 1925 3584 2291 3584 
Q 2894 3584 3203 3211 
Q 3513 2838 3513 2113 
z
" transform="scale(0.015625)"/>
       <path id="DejaVuSans-74" d="M 1172 4494 
L 1172 3500 
L 2356 3500 
L 2356 3053 
L 1172 3053 
L 1172 1153 
Q 1172 725 1289 603 
Q 1406 481 1766 481 
L 2356 481 
L 2356 0 
L 1766 0 
Q 1100 0 847 248 
Q 594 497 594 1153 
L 594 3053 
L 172 3053 
L 172 3500 
L 594 3500 
L 594 4494 
L 1172 4494 
z
" transform="scale(0.015625)"/>
       <path id="DejaVuSans-2e" d="M 684 794 
L 1344 794 
L 1344 0 
L 684 0 
L 684 794 
z
" transform="scale(0.015625)"/>
      </defs>
      <use xlink:href="#DejaVuSans-43" transform="translate(0 0.78125)"/>
      <use xlink:href="#DejaVuSans-6f" transform="translate(69.824219 0.78125)"/>
      <use xlink:href="#DejaVuSans-6e" transform="translate(131.005859 0.78125)"/>
      <use xlink:href="#DejaVuSans-74" transform="translate(194.384766 0.78125)"/>
      <use xlink:href="#DejaVuSans-2e" transform="translate(233.59375 0.78125)"/>
      <use xlink:href="#DejaVuSans-20" transform="translate(265.380859 0.78125)"/>
      <use xlink:href="#DejaVuSans-Oblique-75" transform="translate(297.167969 0.78125)"/>
     </g>
    </g>
    <g id="line2d_22">
     <path d="M 364.628047 130.792188 
L 383.628047 130.792188 
" style="fill: none; stroke-dasharray: 5.55,2.4; stroke-dashoffset: 0; stroke: #00ffff; stroke-opacity: 0.5; stroke-width: 1.5"/>
    </g>
    <g id="text_15">
     <!-- $\pm R_u\pm c_u t$ -->
     <g transform="translate(391.228047 134.117188) scale(0.095 -0.095)">
      <defs>
       <path id="DejaVuSans-b1" d="M 2944 4013 
L 2944 2803 
L 4684 2803 
L 4684 2272 
L 2944 2272 
L 2944 1063 
L 2419 1063 
L 2419 2272 
L 678 2272 
L 678 2803 
L 2419 2803 
L 2419 4013 
L 2944 4013 
z
M 678 531 
L 4684 531 
L 4684 0 
L 678 0 
L 678 531 
z
" transform="scale(0.015625)"/>
       <path id="DejaVuSans-Oblique-52" d="M 1613 4147 
L 1294 2491 
L 2106 2491 
Q 2584 2491 2879 2755 
Q 3175 3019 3175 3444 
Q 3175 3784 2976 3965 
Q 2778 4147 2406 4147 
L 1613 4147 
z
M 2772 2241 
Q 2972 2194 3105 2009 
Q 3238 1825 3413 1275 
L 3809 0 
L 3144 0 
L 2778 1197 
Q 2638 1659 2453 1815 
Q 2269 1972 1888 1972 
L 1191 1972 
L 806 0 
L 172 0 
L 1081 4666 
L 2503 4666 
Q 3150 4666 3495 4373 
Q 3841 4081 3841 3531 
Q 3841 3044 3547 2687 
Q 3253 2331 2772 2241 
z
" transform="scale(0.015625)"/>
       <path id="DejaVuSans-Oblique-63" d="M 3431 3366 
L 3316 2797 
Q 3109 2947 2876 3022 
Q 2644 3097 2394 3097 
Q 2119 3097 1870 3000 
Q 1622 2903 1453 2725 
Q 1184 2453 1037 2087 
Q 891 1722 891 1331 
Q 891 859 1127 628 
Q 1363 397 1844 397 
Q 2081 397 2348 469 
Q 2616 541 2906 684 
L 2797 116 
Q 2547 13 2283 -39 
Q 2019 -91 1741 -91 
Q 1044 -91 669 257 
Q 294 606 294 1253 
Q 294 1797 489 2255 
Q 684 2713 1069 3078 
Q 1331 3328 1684 3456 
Q 2038 3584 2456 3584 
Q 2700 3584 2940 3529 
Q 3181 3475 3431 3366 
z
" transform="scale(0.015625)"/>
       <path id="DejaVuSans-Oblique-74" d="M 2706 3500 
L 2619 3053 
L 1472 3053 
L 1100 1153 
Q 1081 1047 1072 975 
Q 1063 903 1063 863 
Q 1063 663 1183 572 
Q 1303 481 1569 481 
L 2150 481 
L 2053 0 
L 1503 0 
Q 991 0 739 200 
Q 488 400 488 806 
Q 488 878 497 964 
Q 506 1050 525 1153 
L 897 3053 
L 409 3053 
L 500 3500 
L 978 3500 
L 1172 4494 
L 1747 4494 
L 1556 3500 
L 2706 3500 
z
" transform="scale(0.015625)"/>
      </defs>
      <use xlink:href="#DejaVuSans-b1" transform="translate(0 0.09375)"/>
      <use xlink:href="#DejaVuSans-Oblique-52" transform="translate(83.789062 0.09375)"/>
      <use xlink:href="#DejaVuSans-Oblique-75" transform="translate(153.271484 -16.3125) scale(0.7)"/>
      <use xlink:href="#DejaVuSans-b1" transform="translate(219.853516 0.09375)"/>
      <use xlink:href="#DejaVuSans-Oblique-63" transform="translate(323.125 0.09375)"/>
      <use xlink:href="#DejaVuSans-Oblique-75" transform="translate(378.105469 -16.3125) scale(0.7)"/>
      <use xlink:href="#DejaVuSans-Oblique-74" transform="translate(425.205078 0.09375)"/>
     </g>
    </g>
    <g id="line2d_23">
     <path d="M 364.628047 144.736406 
L 383.628047 144.736406 
" style="fill: none; stroke: #000000; stroke-opacity: 0.3"/>
    </g>
    <g id="text_16">
     <!-- Equilibrium -->
     <g transform="translate(391.228047 148.061406) scale(0.095 -0.095)">
      <defs>
       <path id="DejaVuSans-45" d="M 628 4666 
L 3578 4666 
L 3578 4134 
L 1259 4134 
L 1259 2753 
L 3481 2753 
L 3481 2222 
L 1259 2222 
L 1259 531 
L 3634 531 
L 3634 0 
L 628 0 
L 628 4666 
z
" transform="scale(0.015625)"/>
       <path id="DejaVuSans-71" d="M 947 1747 
Q 947 1113 1208 752 
Q 1469 391 1925 391 
Q 2381 391 2643 752 
Q 2906 1113 2906 1747 
Q 2906 2381 2643 2742 
Q 2381 3103 1925 3103 
Q 1469 3103 1208 2742 
Q 947 2381 947 1747 
z
M 2906 525 
Q 2725 213 2448 61 
Q 2172 -91 1784 -91 
Q 1150 -91 751 415 
Q 353 922 353 1747 
Q 353 2572 751 3078 
Q 1150 3584 1784 3584 
Q 2172 3584 2448 3432 
Q 2725 3281 2906 2969 
L 2906 3500 
L 3481 3500 
L 3481 -1331 
L 2906 -1331 
L 2906 525 
z
" transform="scale(0.015625)"/>
       <path id="DejaVuSans-75" d="M 544 1381 
L 544 3500 
L 1119 3500 
L 1119 1403 
Q 1119 906 1312 657 
Q 1506 409 1894 409 
Q 2359 409 2629 706 
Q 2900 1003 2900 1516 
L 2900 3500 
L 3475 3500 
L 3475 0 
L 2900 0 
L 2900 538 
Q 2691 219 2414 64 
Q 2138 -91 1772 -91 
Q 1169 -91 856 284 
Q 544 659 544 1381 
z
M 1991 3584 
L 1991 3584 
z
" transform="scale(0.015625)"/>
       <path id="DejaVuSans-69" d="M 603 3500 
L 1178 3500 
L 1178 0 
L 603 0 
L 603 3500 
z
M 603 4863 
L 1178 4863 
L 1178 4134 
L 603 4134 
L 603 4863 
z
" transform="scale(0.015625)"/>
       <path id="DejaVuSans-62" d="M 3116 1747 
Q 3116 2381 2855 2742 
Q 2594 3103 2138 3103 
Q 1681 3103 1420 2742 
Q 1159 2381 1159 1747 
Q 1159 1113 1420 752 
Q 1681 391 2138 391 
Q 2594 391 2855 752 
Q 3116 1113 3116 1747 
z
M 1159 2969 
Q 1341 3281 1617 3432 
Q 1894 3584 2278 3584 
Q 2916 3584 3314 3078 
Q 3713 2572 3713 1747 
Q 3713 922 3314 415 
Q 2916 -91 2278 -91 
Q 1894 -91 1617 61 
Q 1341 213 1159 525 
L 1159 0 
L 581 0 
L 581 4863 
L 1159 4863 
L 1159 2969 
z
" transform="scale(0.015625)"/>
       <path id="DejaVuSans-72" d="M 2631 2963 
Q 2534 3019 2420 3045 
Q 2306 3072 2169 3072 
Q 1681 3072 1420 2755 
Q 1159 2438 1159 1844 
L 1159 0 
L 581 0 
L 581 3500 
L 1159 3500 
L 1159 2956 
Q 1341 3275 1631 3429 
Q 1922 3584 2338 3584 
Q 2397 3584 2469 3576 
Q 2541 3569 2628 3553 
L 2631 2963 
z
" transform="scale(0.015625)"/>
      </defs>
      <use xlink:href="#DejaVuSans-45"/>
      <use xlink:href="#DejaVuSans-71" x="63.183594"/>
      <use xlink:href="#DejaVuSans-75" x="126.660156"/>
      <use xlink:href="#DejaVuSans-69" x="190.039062"/>
      <use xlink:href="#DejaVuSans-6c" x="217.822266"/>
      <use xlink:href="#DejaVuSans-69" x="245.605469"/>
      <use xlink:href="#DejaVuSans-62" x="273.388672"/>
      <use xlink:href="#DejaVuSans-72" x="336.865234"/>
      <use xlink:href="#DejaVuSans-69" x="377.978516"/>
      <use xlink:href="#DejaVuSans-75" x="405.761719"/>
      <use xlink:href="#DejaVuSans-6d" x="469.140625"/>
     </g>
    </g>
    <g id="line2d_24">
     <path d="M 364.628047 158.680625 
L 374.128047 158.680625 
L 383.628047 158.680625 
" style="fill: none; stroke: #d62728; stroke-width: 1.5; stroke-linecap: square"/>
    </g>
    <g id="text_17">
     <!-- ABM $i$ -->
     <g transform="translate(391.228047 162.005625) scale(0.095 -0.095)">
      <defs>
       <path id="DejaVuSans-Oblique-69" d="M 1172 4863 
L 1747 4863 
L 1606 4134 
L 1031 4134 
L 1172 4863 
z
M 909 3500 
L 1484 3500 
L 800 0 
L 225 0 
L 909 3500 
z
" transform="scale(0.015625)"/>
      </defs>
      <use xlink:href="#DejaVuSans-41" transform="translate(0 0.015625)"/>
      <use xlink:href="#DejaVuSans-42" transform="translate(68.408203 0.015625)"/>
      <use xlink:href="#DejaVuSans-4d" transform="translate(137.011719 0.015625)"/>
      <use xlink:href="#DejaVuSans-20" transform="translate(223.291016 0.015625)"/>
      <use xlink:href="#DejaVuSans-Oblique-69" transform="translate(255.078125 0.015625)"/>
     </g>
    </g>
    <g id="line2d_25">
     <path d="M 364.628047 172.624844 
L 374.128047 172.624844 
L 383.628047 172.624844 
" style="fill: none; stroke-dasharray: 1.5,2.475; stroke-dashoffset: 0; stroke: #000000; stroke-width: 1.5"/>
    </g>
    <g id="text_18">
     <!-- Cont. $i$ -->
     <g transform="translate(391.228047 175.949844) scale(0.095 -0.095)">
      <use xlink:href="#DejaVuSans-43" transform="translate(0 0.015625)"/>
      <use xlink:href="#DejaVuSans-6f" transform="translate(69.824219 0.015625)"/>
      <use xlink:href="#DejaVuSans-6e" transform="translate(131.005859 0.015625)"/>
      <use xlink:href="#DejaVuSans-74" transform="translate(194.384766 0.015625)"/>
      <use xlink:href="#DejaVuSans-2e" transform="translate(233.59375 0.015625)"/>
      <use xlink:href="#DejaVuSans-20" transform="translate(265.380859 0.015625)"/>
      <use xlink:href="#DejaVuSans-Oblique-69" transform="translate(297.167969 0.015625)"/>
     </g>
    </g>
    <g id="line2d_26">
     <path d="M 364.628047 186.569063 
L 383.628047 186.569063 
" style="fill: none; stroke-dasharray: 5.55,2.4; stroke-dashoffset: 0; stroke: #d62728; stroke-opacity: 0.5; stroke-width: 1.5"/>
    </g>
    <g id="text_19">
     <!-- $\pm R_i$ -->
     <g transform="translate(391.228047 189.894063) scale(0.095 -0.095)">
      <use xlink:href="#DejaVuSans-b1" transform="translate(0 0.09375)"/>
      <use xlink:href="#DejaVuSans-Oblique-52" transform="translate(83.789062 0.09375)"/>
      <use xlink:href="#DejaVuSans-Oblique-69" transform="translate(153.271484 -16.3125) scale(0.7)"/>
     </g>
    </g>
   </g>
  </g>
 </g>
 <defs>
  <clipPath id="pfc59c59db9">
   <rect x="63" y="34.56" width="390.6" height="221.76"/>
  </clipPath>
 </defs>
</svg>
