<?xml version="1.0" encoding="utf-8" standalone="no"?>
<!DOCTYPE svg PUBLIC "-//W3C//DTD SVG 1.1//EN"
  "http://www.w3.org/Graphics/SVG/1.1/DTD/svg11.dtd">
<svg xmlns:xlink="http://www.w3.org/1999/xlink" width="504pt" height="288pt" viewBox="0 0 504 288" xmlns="http://www.w3.org/2000/svg" version="1.1">
 <metadata>
  <rdf:RDF xmlns:dc="http://purl.org/dc/elements/1.1/" xmlns:cc="http://creativecommons.org/ns#" xmlns:rdf="http://www.w3.org/1999/02/22-rdf-syntax-ns#">
   <cc:Work>
    <dc:type rdf:resource="http://purl.org/dc/dcmitype/StillImage"/>
    <dc:date>2024-03-08T14:59:02.430864</dc:date>
    <dc:format>image/svg+xml</dc:format>
    <dc:creator>
     <cc:Agent>
      <dc:title>Matplotlib v3.7.1, https://matplotlib.org/</dc:title>
     </cc:Agent>
    </dc:creator>
   </cc:Work>
  </rdf:RDF>
 </metadata>
 <defs>
  <style type="text/css">*{stroke-linejoin: round; stroke-linecap: butt}</style>
 </defs>
 <g id="figure_1">
  <g id="patch_1">
   <path d="M 0 288 
L 504 288 
L 504 0 
L 0 0 
z
" style="fill: #ffffff"/>
  </g>
  <g id="axes_1">
   <g id="patch_2">
    <path d="M 63 256.32 
L 453.6 256.32 
L 453.6 34.56 
L 63 34.56 
z
" style="fill: #ffffff"/>
   </g>
   <g id="matplotlib.axis_1">
    <g id="xtick_1">
     <g id="line2d_1">
      <defs>
       <path id="m22b5a40629" d="M 0 0 
L 0 3.5 
" style="stroke: #000000; stroke-width: 0.8"/>
      </defs>
      <g>
       <use xlink:href="#m22b5a40629" x="170.415" y="256.32" style="stroke: #000000; stroke-width: 0.8"/>
      </g>
     </g>
     <g id="text_1">
      <!-- -5 -->
      <g transform="translate(165.429844 270.918437) scale(0.1 -0.1)">
       <defs>
        <path id="DejaVuSans-2d" d="M 313 2009 
L 1997 2009 
L 1997 1497 
L 313 1497 
L 313 2009 
z
" transform="scale(0.015625)"/>
        <path id="DejaVuSans-35" d="M 691 4666 
L 3169 4666 
L 3169 4134 
L 1269 4134 
L 1269 2991 
Q 1406 3038 1543 3061 
Q 1681 3084 1819 3084 
Q 2600 3084 3056 2656 
Q 3513 2228 3513 1497 
Q 3513 744 3044 326 
Q 2575 -91 1722 -91 
Q 1428 -91 1123 -41 
Q 819 9 494 109 
L 494 744 
Q 775 591 1075 516 
Q 1375 441 1709 441 
Q 2250 441 2565 725 
Q 2881 1009 2881 1497 
Q 2881 1984 2565 2268 
Q 2250 2553 1709 2553 
Q 1456 2553 1204 2497 
Q 953 2441 691 2322 
L 691 4666 
z
" transform="scale(0.015625)"/>
       </defs>
       <use xlink:href="#DejaVuSans-2d"/>
       <use xlink:href="#DejaVuSans-35" x="36.083984"/>
      </g>
     </g>
    </g>
    <g id="xtick_2">
     <g id="line2d_2">
      <g>
       <use xlink:href="#m22b5a40629" x="258.3" y="256.32" style="stroke: #000000; stroke-width: 0.8"/>
      </g>
     </g>
     <g id="text_2">
      <!-- 0 -->
      <g transform="translate(255.11875 270.918437) scale(0.1 -0.1)">
       <defs>
        <path id="DejaVuSans-30" d="M 2034 4250 
Q 1547 4250 1301 3770 
Q 1056 3291 1056 2328 
Q 1056 1369 1301 889 
Q 1547 409 2034 409 
Q 2525 409 2770 889 
Q 3016 1369 3016 2328 
Q 3016 3291 2770 3770 
Q 2525 4250 2034 4250 
z
M 2034 4750 
Q 2819 4750 3233 4129 
Q 3647 3509 3647 2328 
Q 3647 1150 3233 529 
Q 2819 -91 2034 -91 
Q 1250 -91 836 529 
Q 422 1150 422 2328 
Q 422 3509 836 4129 
Q 1250 4750 2034 4750 
z
" transform="scale(0.015625)"/>
       </defs>
       <use xlink:href="#DejaVuSans-30"/>
      </g>
     </g>
    </g>
    <g id="xtick_3">
     <g id="line2d_3">
      <g>
       <use xlink:href="#m22b5a40629" x="346.185" y="256.32" style="stroke: #000000; stroke-width: 0.8"/>
      </g>
     </g>
     <g id="text_3">
      <!-- +5 -->
      <g transform="translate(338.813906 270.918437) scale(0.1 -0.1)">
       <defs>
        <path id="DejaVuSans-2b" d="M 2944 4013 
L 2944 2272 
L 4684 2272 
L 4684 1741 
L 2944 1741 
L 2944 0 
L 2419 0 
L 2419 1741 
L 678 1741 
L 678 2272 
L 2419 2272 
L 2419 4013 
L 2944 4013 
z
" transform="scale(0.015625)"/>
       </defs>
       <use xlink:href="#DejaVuSans-2b"/>
       <use xlink:href="#DejaVuSans-35" x="83.789062"/>
      </g>
     </g>
    </g>
    <g id="text_4">
     <!-- mm -->
     <g transform="translate(248.559375 284.596563) scale(0.1 -0.1)">
      <defs>
       <path id="DejaVuSans-6d" d="M 3328 2828 
Q 3544 3216 3844 3400 
Q 4144 3584 4550 3584 
Q 5097 3584 5394 3201 
Q 5691 2819 5691 2113 
L 5691 0 
L 5113 0 
L 5113 2094 
Q 5113 2597 4934 2840 
Q 4756 3084 4391 3084 
Q 3944 3084 3684 2787 
Q 3425 2491 3425 1978 
L 3425 0 
L 2847 0 
L 2847 2094 
Q 2847 2600 2669 2842 
Q 2491 3084 2119 3084 
Q 1678 3084 1418 2786 
Q 1159 2488 1159 1978 
L 1159 0 
L 581 0 
L 581 3500 
L 1159 3500 
L 1159 2956 
Q 1356 3278 1631 3431 
Q 1906 3584 2284 3584 
Q 2666 3584 2933 3390 
Q 3200 3197 3328 2828 
z
" transform="scale(0.015625)"/>
      </defs>
      <use xlink:href="#DejaVuSans-6d"/>
      <use xlink:href="#DejaVuSans-6d" x="97.412109"/>
     </g>
    </g>
   </g>
   <g id="matplotlib.axis_2">
    <g id="ytick_1">
     <g id="line2d_4">
      <path d="M 63 246.24 
L 453.6 246.24 
" clip-path="url(#p6e3169b0dc)" style="fill: none; stroke: #b0b0b0; stroke-opacity: 0.3; stroke-width: 0.8; stroke-linecap: square"/>
     </g>
     <g id="line2d_5">
      <defs>
       <path id="mcec92d9268" d="M 0 0 
L -3.5 0 
" style="stroke: #000000; stroke-width: 0.8"/>
      </defs>
      <g>
       <use xlink:href="#mcec92d9268" x="63" y="246.24" style="stroke: #000000; stroke-width: 0.8"/>
      </g>
     </g>
     <g id="text_5">
      <!-- 0 -->
      <g transform="translate(49.6375 250.039219) scale(0.1 -0.1)">
       <use xlink:href="#DejaVuSans-30"/>
      </g>
     </g>
    </g>
    <g id="ytick_2">
     <g id="line2d_6">
      <path d="M 63 205.92 
L 453.6 205.92 
" clip-path="url(#p6e3169b0dc)" style="fill: none; stroke: #b0b0b0; stroke-opacity: 0.3; stroke-width: 0.8; stroke-linecap: square"/>
     </g>
     <g id="line2d_7">
      <g>
       <use xlink:href="#mcec92d9268" x="63" y="205.92" style="stroke: #000000; stroke-width: 0.8"/>
      </g>
     </g>
     <g id="text_6">
      <!-- 200 -->
      <g transform="translate(36.9125 209.719219) scale(0.1 -0.1)">
       <defs>
        <path id="DejaVuSans-32" d="M 1228 531 
L 3431 531 
L 3431 0 
L 469 0 
L 469 531 
Q 828 903 1448 1529 
Q 2069 2156 2228 2338 
Q 2531 2678 2651 2914 
Q 2772 3150 2772 3378 
Q 2772 3750 2511 3984 
Q 2250 4219 1831 4219 
Q 1534 4219 1204 4116 
Q 875 4013 500 3803 
L 500 4441 
Q 881 4594 1212 4672 
Q 1544 4750 1819 4750 
Q 2544 4750 2975 4387 
Q 3406 4025 3406 3419 
Q 3406 3131 3298 2873 
Q 3191 2616 2906 2266 
Q 2828 2175 2409 1742 
Q 1991 1309 1228 531 
z
" transform="scale(0.015625)"/>
       </defs>
       <use xlink:href="#DejaVuSans-32"/>
       <use xlink:href="#DejaVuSans-30" x="63.623047"/>
       <use xlink:href="#DejaVuSans-30" x="127.246094"/>
      </g>
     </g>
    </g>
    <g id="ytick_3">
     <g id="line2d_8">
      <path d="M 63 165.6 
L 453.6 165.6 
" clip-path="url(#p6e3169b0dc)" style="fill: none; stroke: #b0b0b0; stroke-opacity: 0.3; stroke-width: 0.8; stroke-linecap: square"/>
     </g>
     <g id="line2d_9">
      <g>
       <use xlink:href="#mcec92d9268" x="63" y="165.6" style="stroke: #000000; stroke-width: 0.8"/>
      </g>
     </g>
     <g id="text_7">
      <!-- 400 -->
      <g transform="translate(36.9125 169.399219) scale(0.1 -0.1)">
       <defs>
        <path id="DejaVuSans-34" d="M 2419 4116 
L 825 1625 
L 2419 1625 
L 2419 4116 
z
M 2253 4666 
L 3047 4666 
L 3047 1625 
L 3713 1625 
L 3713 1100 
L 3047 1100 
L 3047 0 
L 2419 0 
L 2419 1100 
L 313 1100 
L 313 1709 
L 2253 4666 
z
" transform="scale(0.015625)"/>
       </defs>
       <use xlink:href="#DejaVuSans-34"/>
       <use xlink:href="#DejaVuSans-30" x="63.623047"/>
       <use xlink:href="#DejaVuSans-30" x="127.246094"/>
      </g>
     </g>
    </g>
    <g id="ytick_4">
     <g id="line2d_10">
      <path d="M 63 125.28 
L 453.6 125.28 
" clip-path="url(#p6e3169b0dc)" style="fill: none; stroke: #b0b0b0; stroke-opacity: 0.3; stroke-width: 0.8; stroke-linecap: square"/>
     </g>
     <g id="line2d_11">
      <g>
       <use xlink:href="#mcec92d9268" x="63" y="125.28" style="stroke: #000000; stroke-width: 0.8"/>
      </g>
     </g>
     <g id="text_8">
      <!-- 600 -->
      <g transform="translate(36.9125 129.079219) scale(0.1 -0.1)">
       <defs>
        <path id="DejaVuSans-36" d="M 2113 2584 
Q 1688 2584 1439 2293 
Q 1191 2003 1191 1497 
Q 1191 994 1439 701 
Q 1688 409 2113 409 
Q 2538 409 2786 701 
Q 3034 994 3034 1497 
Q 3034 2003 2786 2293 
Q 2538 2584 2113 2584 
z
M 3366 4563 
L 3366 3988 
Q 3128 4100 2886 4159 
Q 2644 4219 2406 4219 
Q 1781 4219 1451 3797 
Q 1122 3375 1075 2522 
Q 1259 2794 1537 2939 
Q 1816 3084 2150 3084 
Q 2853 3084 3261 2657 
Q 3669 2231 3669 1497 
Q 3669 778 3244 343 
Q 2819 -91 2113 -91 
Q 1303 -91 875 529 
Q 447 1150 447 2328 
Q 447 3434 972 4092 
Q 1497 4750 2381 4750 
Q 2619 4750 2861 4703 
Q 3103 4656 3366 4563 
z
" transform="scale(0.015625)"/>
       </defs>
       <use xlink:href="#DejaVuSans-36"/>
       <use xlink:href="#DejaVuSans-30" x="63.623047"/>
       <use xlink:href="#DejaVuSans-30" x="127.246094"/>
      </g>
     </g>
    </g>
    <g id="ytick_5">
     <g id="line2d_12">
      <path d="M 63 84.96 
L 453.6 84.96 
" clip-path="url(#p6e3169b0dc)" style="fill: none; stroke: #b0b0b0; stroke-opacity: 0.3; stroke-width: 0.8; stroke-linecap: square"/>
     </g>
     <g id="line2d_13">
      <g>
       <use xlink:href="#mcec92d9268" x="63" y="84.96" style="stroke: #000000; stroke-width: 0.8"/>
      </g>
     </g>
     <g id="text_9">
      <!-- 800 -->
      <g transform="translate(36.9125 88.759219) scale(0.1 -0.1)">
       <defs>
        <path id="DejaVuSans-38" d="M 2034 2216 
Q 1584 2216 1326 1975 
Q 1069 1734 1069 1313 
Q 1069 891 1326 650 
Q 1584 409 2034 409 
Q 2484 409 2743 651 
Q 3003 894 3003 1313 
Q 3003 1734 2745 1975 
Q 2488 2216 2034 2216 
z
M 1403 2484 
Q 997 2584 770 2862 
Q 544 3141 544 3541 
Q 544 4100 942 4425 
Q 1341 4750 2034 4750 
Q 2731 4750 3128 4425 
Q 3525 4100 3525 3541 
Q 3525 3141 3298 2862 
Q 3072 2584 2669 2484 
Q 3125 2378 3379 2068 
Q 3634 1759 3634 1313 
Q 3634 634 3220 271 
Q 2806 -91 2034 -91 
Q 1263 -91 848 271 
Q 434 634 434 1313 
Q 434 1759 690 2068 
Q 947 2378 1403 2484 
z
M 1172 3481 
Q 1172 3119 1398 2916 
Q 1625 2713 2034 2713 
Q 2441 2713 2670 2916 
Q 2900 3119 2900 3481 
Q 2900 3844 2670 4047 
Q 2441 4250 2034 4250 
Q 1625 4250 1398 4047 
Q 1172 3844 1172 3481 
z
" transform="scale(0.015625)"/>
       </defs>
       <use xlink:href="#DejaVuSans-38"/>
       <use xlink:href="#DejaVuSans-30" x="63.623047"/>
       <use xlink:href="#DejaVuSans-30" x="127.246094"/>
      </g>
     </g>
    </g>
    <g id="ytick_6">
     <g id="line2d_14">
      <path d="M 63 44.64 
L 453.6 44.64 
" clip-path="url(#p6e3169b0dc)" style="fill: none; stroke: #b0b0b0; stroke-opacity: 0.3; stroke-width: 0.8; stroke-linecap: square"/>
     </g>
     <g id="line2d_15">
      <g>
       <use xlink:href="#mcec92d9268" x="63" y="44.64" style="stroke: #000000; stroke-width: 0.8"/>
      </g>
     </g>
     <g id="text_10">
      <!-- 1000 -->
      <g transform="translate(30.55 48.439219) scale(0.1 -0.1)">
       <defs>
        <path id="DejaVuSans-31" d="M 794 531 
L 1825 531 
L 1825 4091 
L 703 3866 
L 703 4441 
L 1819 4666 
L 2450 4666 
L 2450 531 
L 3481 531 
L 3481 0 
L 794 0 
L 794 531 
z
" transform="scale(0.015625)"/>
       </defs>
       <use xlink:href="#DejaVuSans-31"/>
       <use xlink:href="#DejaVuSans-30" x="63.623047"/>
       <use xlink:href="#DejaVuSans-30" x="127.246094"/>
       <use xlink:href="#DejaVuSans-30" x="190.869141"/>
      </g>
     </g>
    </g>
    <g id="text_11">
     <!-- cells/mm -->
     <g transform="translate(24.470312 168.073594) rotate(-90) scale(0.1 -0.1)">
      <defs>
       <path id="DejaVuSans-63" d="M 3122 3366 
L 3122 2828 
Q 2878 2963 2633 3030 
Q 2388 3097 2138 3097 
Q 1578 3097 1268 2742 
Q 959 2388 959 1747 
Q 959 1106 1268 751 
Q 1578 397 2138 397 
Q 2388 397 2633 464 
Q 2878 531 3122 666 
L 3122 134 
Q 2881 22 2623 -34 
Q 2366 -91 2075 -91 
Q 1284 -91 818 406 
Q 353 903 353 1747 
Q 353 2603 823 3093 
Q 1294 3584 2113 3584 
Q 2378 3584 2631 3529 
Q 2884 3475 3122 3366 
z
" transform="scale(0.015625)"/>
       <path id="DejaVuSans-65" d="M 3597 1894 
L 3597 1613 
L 953 1613 
Q 991 1019 1311 708 
Q 1631 397 2203 397 
Q 2534 397 2845 478 
Q 3156 559 3463 722 
L 3463 178 
Q 3153 47 2828 -22 
Q 2503 -91 2169 -91 
Q 1331 -91 842 396 
Q 353 884 353 1716 
Q 353 2575 817 3079 
Q 1281 3584 2069 3584 
Q 2775 3584 3186 3129 
Q 3597 2675 3597 1894 
z
M 3022 2063 
Q 3016 2534 2758 2815 
Q 2500 3097 2075 3097 
Q 1594 3097 1305 2825 
Q 1016 2553 972 2059 
L 3022 2063 
z
" transform="scale(0.015625)"/>
       <path id="DejaVuSans-6c" d="M 603 4863 
L 1178 4863 
L 1178 0 
L 603 0 
L 603 4863 
z
" transform="scale(0.015625)"/>
       <path id="DejaVuSans-73" d="M 2834 3397 
L 2834 2853 
Q 2591 2978 2328 3040 
Q 2066 3103 1784 3103 
Q 1356 3103 1142 2972 
Q 928 2841 928 2578 
Q 928 2378 1081 2264 
Q 1234 2150 1697 2047 
L 1894 2003 
Q 2506 1872 2764 1633 
Q 3022 1394 3022 966 
Q 3022 478 2636 193 
Q 2250 -91 1575 -91 
Q 1294 -91 989 -36 
Q 684 19 347 128 
L 347 722 
Q 666 556 975 473 
Q 1284 391 1588 391 
Q 1994 391 2212 530 
Q 2431 669 2431 922 
Q 2431 1156 2273 1281 
Q 2116 1406 1581 1522 
L 1381 1569 
Q 847 1681 609 1914 
Q 372 2147 372 2553 
Q 372 3047 722 3315 
Q 1072 3584 1716 3584 
Q 2034 3584 2315 3537 
Q 2597 3491 2834 3397 
z
" transform="scale(0.015625)"/>
       <path id="DejaVuSans-2f" d="M 1625 4666 
L 2156 4666 
L 531 -594 
L 0 -594 
L 1625 4666 
z
" transform="scale(0.015625)"/>
      </defs>
      <use xlink:href="#DejaVuSans-63"/>
      <use xlink:href="#DejaVuSans-65" x="54.980469"/>
      <use xlink:href="#DejaVuSans-6c" x="116.503906"/>
      <use xlink:href="#DejaVuSans-6c" x="144.287109"/>
      <use xlink:href="#DejaVuSans-73" x="172.070312"/>
      <use xlink:href="#DejaVuSans-2f" x="224.169922"/>
      <use xlink:href="#DejaVuSans-6d" x="257.861328"/>
      <use xlink:href="#DejaVuSans-6d" x="355.273438"/>
     </g>
    </g>
   </g>
   <g id="line2d_16">
    <path d="M 80.754545 246.24 
L 156.211364 246.24 
L 157.986818 232.8 
L 158.874545 209.952 
L 159.762273 195.168 
L 160.65 176.352 
L 162.425455 150.816 
L 163.313182 144.096 
L 164.200909 134.688 
L 165.088636 123.936 
L 165.976364 115.872 
L 166.864091 103.776 
L 167.751818 101.088 
L 168.639545 91.68 
L 169.527273 90.336 
L 173.078182 68.832 
L 173.965909 64.8 
L 174.853636 64.8 
L 175.741364 62.112 
L 176.629091 58.08 
L 177.516818 55.392 
L 178.404545 56.736 
L 180.18 56.736 
L 181.067727 54.048 
L 181.955455 54.048 
L 182.843182 51.36 
L 183.730909 54.048 
L 184.618636 51.36 
L 185.506364 50.016 
L 186.394091 50.016 
L 187.281818 52.704 
L 188.169545 48.672 
L 189.057273 45.984 
L 189.945 47.328 
L 192.608182 47.328 
L 193.495909 45.984 
L 194.383636 47.328 
L 196.159091 44.64 
L 197.046818 44.64 
L 197.934545 47.328 
L 199.71 44.64 
L 201.485455 44.64 
L 202.373182 45.984 
L 203.260909 44.64 
L 205.036364 44.64 
L 205.924091 45.984 
L 206.811818 44.64 
L 207.699545 44.64 
L 208.587273 45.984 
L 209.475 45.984 
L 210.362727 44.64 
L 213.025909 44.64 
L 213.913636 45.984 
L 214.801364 45.984 
L 215.689091 44.64 
L 216.576818 45.984 
L 217.464545 44.64 
L 218.352273 45.984 
L 219.24 44.64 
L 220.127727 45.984 
L 221.015455 45.984 
L 221.903182 44.64 
L 223.678636 47.328 
L 224.566364 45.984 
L 226.341818 45.984 
L 227.229545 48.672 
L 228.117273 48.672 
L 229.005 45.984 
L 231.668182 50.016 
L 232.555909 52.704 
L 233.443636 56.736 
L 234.331364 56.736 
L 235.219091 58.08 
L 236.106818 63.456 
L 236.994545 63.456 
L 237.882273 70.176 
L 238.77 72.864 
L 239.657727 79.584 
L 240.545455 88.992 
L 241.433182 132 
L 242.320909 141.408 
L 243.208636 193.824 
L 244.096364 150.816 
L 244.984091 141.408 
L 245.871818 105.12 
L 246.759545 122.592 
L 247.647273 121.248 
L 248.535 102.432 
L 249.422727 98.4 
L 250.310455 99.744 
L 252.085909 110.496 
L 252.973636 126.624 
L 253.861364 134.688 
L 254.749091 144.096 
L 255.636818 122.592 
L 256.524545 105.12 
L 257.412273 98.4 
L 258.3 98.4 
L 259.187727 110.496 
L 260.075455 119.904 
L 260.963182 122.592 
L 261.850909 127.968 
L 262.738636 130.656 
L 263.626364 121.248 
L 264.514091 127.968 
L 265.401818 121.248 
L 266.289545 111.84 
L 267.177273 107.808 
L 268.065 114.528 
L 268.952727 133.344 
L 269.840455 172.32 
L 270.728182 121.248 
L 271.615909 110.496 
L 272.503636 93.024 
L 273.391364 80.928 
L 274.279091 78.24 
L 275.166818 71.52 
L 276.054545 66.144 
L 276.942273 66.144 
L 277.83 60.768 
L 278.717727 60.768 
L 279.605455 58.08 
L 280.493182 58.08 
L 281.380909 52.704 
L 282.268636 52.704 
L 285.819545 47.328 
L 286.707273 47.328 
L 287.595 45.984 
L 288.482727 45.984 
L 289.370455 47.328 
L 291.145909 47.328 
L 292.033636 44.64 
L 292.921364 44.64 
L 293.809091 48.672 
L 294.696818 45.984 
L 295.584545 45.984 
L 296.472273 44.64 
L 310.675909 44.64 
L 311.563636 45.984 
L 312.451364 45.984 
L 313.339091 44.64 
L 316.89 44.64 
L 317.777727 47.328 
L 318.665455 44.64 
L 319.553182 44.64 
L 320.440909 45.984 
L 321.328636 45.984 
L 322.216364 50.016 
L 323.991818 47.328 
L 324.879545 48.672 
L 325.767273 47.328 
L 326.655 48.672 
L 327.542727 47.328 
L 328.430455 50.016 
L 329.318182 47.328 
L 330.205909 50.016 
L 331.981364 50.016 
L 332.869091 52.704 
L 333.756818 51.36 
L 334.644545 55.392 
L 335.532273 54.048 
L 336.42 54.048 
L 337.307727 60.768 
L 339.083182 60.768 
L 339.970909 62.112 
L 340.858636 64.8 
L 341.746364 70.176 
L 343.521818 72.864 
L 344.409545 75.552 
L 347.072727 91.68 
L 347.960455 98.4 
L 348.848182 99.744 
L 349.735909 106.464 
L 350.623636 114.528 
L 351.511364 125.28 
L 352.399091 132 
L 355.062273 172.32 
L 355.95 183.072 
L 356.837727 200.544 
L 357.725455 215.328 
L 359.500909 239.52 
L 360.388636 244.896 
L 361.276364 246.24 
L 434.957727 246.24 
L 434.957727 246.24 
" clip-path="url(#p6e3169b0dc)" style="fill: none; stroke: #1f77b4; stroke-width: 1.5; stroke-linecap: square"/>
   </g>
   <g id="line2d_17">
    <path d="M 80.754545 246.24 
L 156.211364 246.23906 
L 157.099091 245.769282 
L 157.986818 239.000381 
L 159.762273 207.233294 
L 161.537727 175.585436 
L 163.313182 148.847278 
L 165.088636 127.108499 
L 166.864091 109.700812 
L 168.639545 95.867601 
L 170.415 84.923324 
L 172.190455 76.288663 
L 173.965909 69.488804 
L 175.741364 64.140745 
L 177.516818 59.938394 
L 179.292273 56.638545 
L 181.067727 54.048701 
L 182.843182 52.016909 
L 184.618636 50.423452 
L 186.394091 49.174146 
L 188.169545 48.194986 
L 189.945 47.427887 
L 192.608182 46.578017 
L 195.271364 45.991049 
L 198.822273 45.485669 
L 203.260909 45.144011 
L 207.699545 45.024871 
L 212.138182 45.127306 
L 215.689091 45.462665 
L 218.352273 45.985202 
L 220.127727 46.54824 
L 221.903182 47.371825 
L 223.678636 48.572172 
L 224.566364 49.364151 
L 225.454091 50.319797 
L 226.341818 51.473264 
L 227.229545 52.86618 
L 228.117273 54.549438 
L 229.005 56.585488 
L 229.892727 59.051325 
L 230.780455 62.042449 
L 231.668182 65.678267 
L 232.555909 70.112216 
L 233.443636 75.620532 
L 234.331364 83.420616 
L 235.219091 96.806582 
L 237.882273 152.526965 
L 238.77 165.799857 
L 239.657727 174.911787 
L 240.545455 180.093212 
L 241.433182 181.599358 
L 242.320909 179.440428 
L 243.208636 172.61012 
L 244.096364 167.40412 
L 244.984091 163.970899 
L 245.871818 162.426529 
L 246.759545 162.625685 
L 247.647273 163.400753 
L 249.422727 165.253233 
L 250.310455 165.856408 
L 251.198182 166.233631 
L 252.973636 166.543371 
L 255.636818 166.586555 
L 264.514091 166.442851 
L 265.401818 166.233631 
L 266.289545 165.856408 
L 267.177273 165.253233 
L 269.840455 162.625685 
L 270.728182 162.426529 
L 271.615909 163.970899 
L 272.503636 167.40412 
L 273.391364 172.61012 
L 274.279091 179.440428 
L 275.166818 181.599358 
L 276.054545 180.093212 
L 276.942273 174.911787 
L 277.83 165.799857 
L 278.717727 152.526965 
L 279.605455 135.302669 
L 281.380909 96.806582 
L 282.268636 83.420616 
L 283.156364 75.620532 
L 284.044091 70.112216 
L 284.931818 65.678267 
L 285.819545 62.042449 
L 286.707273 59.051325 
L 287.595 56.585488 
L 288.482727 54.549438 
L 289.370455 52.86618 
L 290.258182 51.473264 
L 291.145909 50.319797 
L 292.033636 49.364151 
L 293.809091 47.915775 
L 295.584545 46.921234 
L 297.36 46.239818 
L 299.135455 45.775492 
L 301.798636 45.348479 
L 305.349545 45.084794 
L 309.788182 45.032643 
L 314.226818 45.192537 
L 318.665455 45.588573 
L 322.216364 46.162939 
L 324.879545 46.827316 
L 327.542727 47.788035 
L 329.318182 48.654758 
L 331.093636 49.760823 
L 332.869091 51.171805 
L 334.644545 52.971201 
L 336.42 55.265214 
L 338.195455 58.188747 
L 339.970909 61.912878 
L 341.746364 66.654061 
L 343.521818 72.685298 
L 345.297273 80.349291 
L 347.072727 90.073111 
L 348.848182 102.382606 
L 350.623636 117.911338 
L 352.399091 137.38913 
L 354.174545 161.563793 
L 355.95 190.880336 
L 358.613182 239.000381 
L 359.500909 245.769282 
L 360.388636 246.23906 
L 434.957727 246.24 
L 434.957727 246.24 
" clip-path="url(#p6e3169b0dc)" style="fill: none; stroke-dasharray: 1.5,2.475; stroke-dashoffset: 0; stroke: #000000; stroke-width: 1.5"/>
   </g>
   <g id="LineCollection_1">
    <path d="M 351.005318 246.24 
L 351.005318 44.64 
" clip-path="url(#p6e3169b0dc)" style="fill: none; stroke-dasharray: 5.55,2.4; stroke-dashoffset: 0; stroke: #00ffff; stroke-opacity: 0.5; stroke-width: 1.5"/>
    <path d="M 165.594682 246.24 
L 165.594682 44.64 
" clip-path="url(#p6e3169b0dc)" style="fill: none; stroke-dasharray: 5.55,2.4; stroke-dashoffset: 0; stroke: #00ffff; stroke-opacity: 0.5; stroke-width: 1.5"/>
   </g>
   <g id="LineCollection_2">
    <path d="M 80.754545 163.821176 
L 435.845455 163.821176 
" clip-path="url(#p6e3169b0dc)" style="fill: none; stroke: #000000; stroke-opacity: 0.3"/>
   </g>
   <g id="line2d_18">
    <path d="M 80.754545 246.24 
L 240.545455 246.24 
L 241.433182 211.296 
L 242.320909 209.952 
L 243.208636 164.256 
L 244.096364 207.264 
L 244.984091 213.984 
L 245.871818 244.896 
L 246.759545 227.424 
L 247.647273 227.424 
L 248.535 242.208 
L 249.422727 246.24 
L 250.310455 246.24 
L 252.085909 238.176 
L 252.973636 224.736 
L 253.861364 219.36 
L 254.749091 209.952 
L 255.636818 227.424 
L 256.524545 240.864 
L 257.412273 246.24 
L 258.3 246.24 
L 260.075455 230.112 
L 260.963182 228.768 
L 261.850909 224.736 
L 262.738636 223.392 
L 263.626364 232.8 
L 264.514091 222.048 
L 265.401818 231.456 
L 266.289545 242.208 
L 267.177273 246.24 
L 268.065 238.176 
L 268.952727 220.704 
L 269.840455 181.728 
L 270.728182 227.424 
L 271.615909 230.112 
L 272.503636 243.552 
L 273.391364 246.24 
L 434.957727 246.24 
L 434.957727 246.24 
" clip-path="url(#p6e3169b0dc)" style="fill: none; stroke: #d62728; stroke-width: 1.5; stroke-linecap: square"/>
   </g>
   <g id="line2d_19">
    <path d="M 80.754545 246.24 
L 233.443636 246.147811 
L 234.331364 244.997619 
L 235.219091 239.718697 
L 236.994545 221.002281 
L 237.882273 214.154991 
L 238.77 210.538143 
L 239.657727 209.652284 
L 240.545455 210.705745 
L 241.433182 213.102584 
L 242.320909 216.811116 
L 243.208636 223.259933 
L 244.096364 227.278651 
L 244.984091 229.453972 
L 245.871818 230.071316 
L 246.759545 229.403699 
L 248.535 227.664378 
L 249.422727 227.055777 
L 250.310455 226.713005 
L 251.198182 226.562556 
L 252.973636 226.548803 
L 258.3 226.685448 
L 262.738636 226.588083 
L 265.401818 226.562556 
L 266.289545 226.713005 
L 267.177273 227.055777 
L 268.065 227.664378 
L 269.840455 229.403699 
L 270.728182 230.071316 
L 271.615909 229.453972 
L 272.503636 227.278651 
L 273.391364 223.259933 
L 274.279091 216.811116 
L 275.166818 213.102584 
L 276.054545 210.705745 
L 276.942273 209.652284 
L 277.83 210.538143 
L 278.717727 214.154991 
L 279.605455 221.002281 
L 281.380909 239.718697 
L 282.268636 244.997619 
L 283.156364 246.147811 
L 284.931818 246.239959 
L 434.957727 246.24 
L 434.957727 246.24 
" clip-path="url(#p6e3169b0dc)" style="fill: none; stroke-dasharray: 1.5,2.475; stroke-dashoffset: 0; stroke: #000000; stroke-width: 1.5"/>
   </g>
   <g id="LineCollection_3">
    <path d="M 240.545455 246.24 
L 240.545455 44.64 
" clip-path="url(#p6e3169b0dc)" style="fill: none; stroke-dasharray: 5.55,2.4; stroke-dashoffset: 0; stroke: #d62728; stroke-opacity: 0.5; stroke-width: 1.5"/>
    <path d="M 276.054545 246.24 
L 276.054545 44.64 
" clip-path="url(#p6e3169b0dc)" style="fill: none; stroke-dasharray: 5.55,2.4; stroke-dashoffset: 0; stroke: #d62728; stroke-opacity: 0.5; stroke-width: 1.5"/>
   </g>
   <g id="LineCollection_4">
    <path d="M 80.754545 227.775311 
L 435.845455 227.775311 
" clip-path="url(#p6e3169b0dc)" style="fill: none; stroke: #000000; stroke-opacity: 0.3"/>
   </g>
   <g id="patch_3">
    <path d="M 63 256.32 
L 63 34.56 
" style="fill: none; stroke: #000000; stroke-width: 0.8; stroke-linejoin: miter; stroke-linecap: square"/>
   </g>
   <g id="patch_4">
    <path d="M 453.6 256.32 
L 453.6 34.56 
" style="fill: none; stroke: #000000; stroke-width: 0.8; stroke-linejoin: miter; stroke-linecap: square"/>
   </g>
   <g id="patch_5">
    <path d="M 63 256.32 
L 453.6 256.32 
" style="fill: none; stroke: #000000; stroke-width: 0.8; stroke-linejoin: miter; stroke-linecap: square"/>
   </g>
   <g id="patch_6">
    <path d="M 63 34.56 
L 453.6 34.56 
" style="fill: none; stroke: #000000; stroke-width: 0.8; stroke-linejoin: miter; stroke-linecap: square"/>
   </g>
   <g id="text_12">
    <!-- h=700 -->
    <g transform="translate(238.017188 28.56) scale(0.12 -0.12)">
     <defs>
      <path id="DejaVuSans-68" d="M 3513 2113 
L 3513 0 
L 2938 0 
L 2938 2094 
Q 2938 2591 2744 2837 
Q 2550 3084 2163 3084 
Q 1697 3084 1428 2787 
Q 1159 2491 1159 1978 
L 1159 0 
L 581 0 
L 581 4863 
L 1159 4863 
L 1159 2956 
Q 1366 3272 1645 3428 
Q 1925 3584 2291 3584 
Q 2894 3584 3203 3211 
Q 3513 2838 3513 2113 
z
" transform="scale(0.015625)"/>
      <path id="DejaVuSans-3d" d="M 678 2906 
L 4684 2906 
L 4684 2381 
L 678 2381 
L 678 2906 
z
M 678 1631 
L 4684 1631 
L 4684 1100 
L 678 1100 
L 678 1631 
z
" transform="scale(0.015625)"/>
      <path id="DejaVuSans-37" d="M 525 4666 
L 3525 4666 
L 3525 4397 
L 1831 0 
L 1172 0 
L 2766 4134 
L 525 4134 
L 525 4666 
z
" transform="scale(0.015625)"/>
     </defs>
     <use xlink:href="#DejaVuSans-68"/>
     <use xlink:href="#DejaVuSans-3d" x="63.378906"/>
     <use xlink:href="#DejaVuSans-37" x="147.167969"/>
     <use xlink:href="#DejaVuSans-30" x="210.791016"/>
     <use xlink:href="#DejaVuSans-30" x="274.414062"/>
    </g>
   </g>
   <g id="legend_1">
    <g id="patch_7">
     <path d="M 362.728047 139.769531 
L 446.95 139.769531 
Q 448.85 139.769531 448.85 137.869531 
L 448.85 41.21 
Q 448.85 39.31 446.95 39.31 
L 362.728047 39.31 
Q 360.828047 39.31 360.828047 41.21 
L 360.828047 137.869531 
Q 360.828047 139.769531 362.728047 139.769531 
z
" style="fill: #ffffff; opacity: 0.8; stroke: #cccccc; stroke-linejoin: miter"/>
    </g>
    <g id="line2d_20">
     <path d="M 364.628047 47.003516 
L 374.128047 47.003516 
L 383.628047 47.003516 
" style="fill: none; stroke: #1f77b4; stroke-width: 1.5; stroke-linecap: square"/>
    </g>
    <g id="text_13">
     <!-- ABM $u$ -->
     <g transform="translate(391.228047 50.328516) scale(0.095 -0.095)">
      <defs>
       <path id="DejaVuSans-41" d="M 2188 4044 
L 1331 1722 
L 3047 1722 
L 2188 4044 
z
M 1831 4666 
L 2547 4666 
L 4325 0 
L 3669 0 
L 3244 1197 
L 1141 1197 
L 716 0 
L 50 0 
L 1831 4666 
z
" transform="scale(0.015625)"/>
       <path id="DejaVuSans-42" d="M 1259 2228 
L 1259 519 
L 2272 519 
Q 2781 519 3026 730 
Q 3272 941 3272 1375 
Q 3272 1813 3026 2020 
Q 2781 2228 2272 2228 
L 1259 2228 
z
M 1259 4147 
L 1259 2741 
L 2194 2741 
Q 2656 2741 2882 2914 
Q 3109 3088 3109 3444 
Q 3109 3797 2882 3972 
Q 2656 4147 2194 4147 
L 1259 4147 
z
M 628 4666 
L 2241 4666 
Q 2963 4666 3353 4366 
Q 3744 4066 3744 3513 
Q 3744 3084 3544 2831 
Q 3344 2578 2956 2516 
Q 3422 2416 3680 2098 
Q 3938 1781 3938 1306 
Q 3938 681 3513 340 
Q 3088 0 2303 0 
L 628 0 
L 628 4666 
z
" transform="scale(0.015625)"/>
       <path id="DejaVuSans-4d" d="M 628 4666 
L 1569 4666 
L 2759 1491 
L 3956 4666 
L 4897 4666 
L 4897 0 
L 4281 0 
L 4281 4097 
L 3078 897 
L 2444 897 
L 1241 4097 
L 1241 0 
L 628 0 
L 628 4666 
z
" transform="scale(0.015625)"/>
       <path id="DejaVuSans-20" transform="scale(0.015625)"/>
       <path id="DejaVuSans-Oblique-75" d="M 428 1388 
L 838 3500 
L 1416 3500 
L 1006 1409 
Q 975 1256 961 1147 
Q 947 1038 947 966 
Q 947 700 1109 554 
Q 1272 409 1569 409 
Q 2031 409 2368 721 
Q 2706 1034 2809 1563 
L 3194 3500 
L 3769 3500 
L 3091 0 
L 2516 0 
L 2631 550 
Q 2388 244 2052 76 
Q 1716 -91 1338 -91 
Q 878 -91 622 161 
Q 366 413 366 863 
Q 366 956 381 1097 
Q 397 1238 428 1388 
z
" transform="scale(0.015625)"/>
      </defs>
      <use xlink:href="#DejaVuSans-41" transform="translate(0 0.09375)"/>
      <use xlink:href="#DejaVuSans-42" transform="translate(68.408203 0.09375)"/>
      <use xlink:href="#DejaVuSans-4d" transform="translate(137.011719 0.09375)"/>
      <use xlink:href="#DejaVuSans-20" transform="translate(223.291016 0.09375)"/>
      <use xlink:href="#DejaVuSans-Oblique-75" transform="translate(255.078125 0.09375)"/>
     </g>
    </g>
    <g id="line2d_21">
     <path d="M 364.628047 60.947734 
L 374.128047 60.947734 
L 383.628047 60.947734 
" style="fill: none; stroke-dasharray: 1.5,2.475; stroke-dashoffset: 0; stroke: #000000; stroke-width: 1.5"/>
    </g>
    <g id="text_14">
     <!-- Cont. $u$ -->
     <g transform="translate(391.228047 64.272734) scale(0.095 -0.095)">
      <defs>
       <path id="DejaVuSans-43" d="M 4122 4306 
L 4122 3641 
Q 3803 3938 3442 4084 
Q 3081 4231 2675 4231 
Q 1875 4231 1450 3742 
Q 1025 3253 1025 2328 
Q 1025 1406 1450 917 
Q 1875 428 2675 428 
Q 3081 428 3442 575 
Q 3803 722 4122 1019 
L 4122 359 
Q 3791 134 3420 21 
Q 3050 -91 2638 -91 
Q 1578 -91 968 557 
Q 359 1206 359 2328 
Q 359 3453 968 4101 
Q 1578 4750 2638 4750 
Q 3056 4750 3426 4639 
Q 3797 4528 4122 4306 
z
" transform="scale(0.015625)"/>
       <path id="DejaVuSans-6f" d="M 1959 3097 
Q 1497 3097 1228 2736 
Q 959 2375 959 1747 
Q 959 1119 1226 758 
Q 1494 397 1959 397 
Q 2419 397 2687 759 
Q 2956 1122 2956 1747 
Q 2956 2369 2687 2733 
Q 2419 3097 1959 3097 
z
M 1959 3584 
Q 2709 3584 3137 3096 
Q 3566 2609 3566 1747 
Q 3566 888 3137 398 
Q 2709 -91 1959 -91 
Q 1206 -91 779 398 
Q 353 888 353 1747 
Q 353 2609 779 3096 
Q 1206 3584 1959 3584 
z
" transform="scale(0.015625)"/>
       <path id="DejaVuSans-6e" d="M 3513 2113 
L 3513 0 
L 2938 0 
L 2938 2094 
Q 2938 2591 2744 2837 
Q 2550 3084 2163 3084 
Q 1697 3084 1428 2787 
Q 1159 2491 1159 1978 
L 1159 0 
L 581 0 
L 581 3500 
L 1159 3500 
L 1159 2956 
Q 1366 3272 1645 3428 
Q 1925 3584 2291 3584 
Q 2894 3584 3203 3211 
Q 3513 2838 3513 2113 
z
" transform="scale(0.015625)"/>
       <path id="DejaVuSans-74" d="M 1172 4494 
L 1172 3500 
L 2356 3500 
L 2356 3053 
L 1172 3053 
L 1172 1153 
Q 1172 725 1289 603 
Q 1406 481 1766 481 
L 2356 481 
L 2356 0 
L 1766 0 
Q 1100 0 847 248 
Q 594 497 594 1153 
L 594 3053 
L 172 3053 
L 172 3500 
L 594 3500 
L 594 4494 
L 1172 4494 
z
" transform="scale(0.015625)"/>
       <path id="DejaVuSans-2e" d="M 684 794 
L 1344 794 
L 1344 0 
L 684 0 
L 684 794 
z
" transform="scale(0.015625)"/>
      </defs>
      <use xlink:href="#DejaVuSans-43" transform="translate(0 0.78125)"/>
      <use xlink:href="#DejaVuSans-6f" transform="translate(69.824219 0.78125)"/>
      <use xlink:href="#DejaVuSans-6e" transform="translate(131.005859 0.78125)"/>
      <use xlink:href="#DejaVuSans-74" transform="translate(194.384766 0.78125)"/>
      <use xlink:href="#DejaVuSans-2e" transform="translate(233.59375 0.78125)"/>
      <use xlink:href="#DejaVuSans-20" transform="translate(265.380859 0.78125)"/>
      <use xlink:href="#DejaVuSans-Oblique-75" transform="translate(297.167969 0.78125)"/>
     </g>
    </g>
    <g id="line2d_22">
     <path d="M 364.628047 74.891953 
L 383.628047 74.891953 
" style="fill: none; stroke-dasharray: 5.55,2.4; stroke-dashoffset: 0; stroke: #00ffff; stroke-opacity: 0.5; stroke-width: 1.5"/>
    </g>
    <g id="text_15">
     <!-- $\pm R_u\pm c_u t$ -->
     <g transform="translate(391.228047 78.216953) scale(0.095 -0.095)">
      <defs>
       <path id="DejaVuSans-b1" d="M 2944 4013 
L 2944 2803 
L 4684 2803 
L 4684 2272 
L 2944 2272 
L 2944 1063 
L 2419 1063 
L 2419 2272 
L 678 2272 
L 678 2803 
L 2419 2803 
L 2419 4013 
L 2944 4013 
z
M 678 531 
L 4684 531 
L 4684 0 
L 678 0 
L 678 531 
z
" transform="scale(0.015625)"/>
       <path id="DejaVuSans-Oblique-52" d="M 1613 4147 
L 1294 2491 
L 2106 2491 
Q 2584 2491 2879 2755 
Q 3175 3019 3175 3444 
Q 3175 3784 2976 3965 
Q 2778 4147 2406 4147 
L 1613 4147 
z
M 2772 2241 
Q 2972 2194 3105 2009 
Q 3238 1825 3413 1275 
L 3809 0 
L 3144 0 
L 2778 1197 
Q 2638 1659 2453 1815 
Q 2269 1972 1888 1972 
L 1191 1972 
L 806 0 
L 172 0 
L 1081 4666 
L 2503 4666 
Q 3150 4666 3495 4373 
Q 3841 4081 3841 3531 
Q 3841 3044 3547 2687 
Q 3253 2331 2772 2241 
z
" transform="scale(0.015625)"/>
       <path id="DejaVuSans-Oblique-63" d="M 3431 3366 
L 3316 2797 
Q 3109 2947 2876 3022 
Q 2644 3097 2394 3097 
Q 2119 3097 1870 3000 
Q 1622 2903 1453 2725 
Q 1184 2453 1037 2087 
Q 891 1722 891 1331 
Q 891 859 1127 628 
Q 1363 397 1844 397 
Q 2081 397 2348 469 
Q 2616 541 2906 684 
L 2797 116 
Q 2547 13 2283 -39 
Q 2019 -91 1741 -91 
Q 1044 -91 669 257 
Q 294 606 294 1253 
Q 294 1797 489 2255 
Q 684 2713 1069 3078 
Q 1331 3328 1684 3456 
Q 2038 3584 2456 3584 
Q 2700 3584 2940 3529 
Q 3181 3475 3431 3366 
z
" transform="scale(0.015625)"/>
       <path id="DejaVuSans-Oblique-74" d="M 2706 3500 
L 2619 3053 
L 1472 3053 
L 1100 1153 
Q 1081 1047 1072 975 
Q 1063 903 1063 863 
Q 1063 663 1183 572 
Q 1303 481 1569 481 
L 2150 481 
L 2053 0 
L 1503 0 
Q 991 0 739 200 
Q 488 400 488 806 
Q 488 878 497 964 
Q 506 1050 525 1153 
L 897 3053 
L 409 3053 
L 500 3500 
L 978 3500 
L 1172 4494 
L 1747 4494 
L 1556 3500 
L 2706 3500 
z
" transform="scale(0.015625)"/>
      </defs>
      <use xlink:href="#DejaVuSans-b1" transform="translate(0 0.09375)"/>
      <use xlink:href="#DejaVuSans-Oblique-52" transform="translate(83.789062 0.09375)"/>
      <use xlink:href="#DejaVuSans-Oblique-75" transform="translate(153.271484 -16.3125) scale(0.7)"/>
      <use xlink:href="#DejaVuSans-b1" transform="translate(219.853516 0.09375)"/>
      <use xlink:href="#DejaVuSans-Oblique-63" transform="translate(323.125 0.09375)"/>
      <use xlink:href="#DejaVuSans-Oblique-75" transform="translate(378.105469 -16.3125) scale(0.7)"/>
      <use xlink:href="#DejaVuSans-Oblique-74" transform="translate(425.205078 0.09375)"/>
     </g>
    </g>
    <g id="line2d_23">
     <path d="M 364.628047 88.836172 
L 383.628047 88.836172 
" style="fill: none; stroke: #000000; stroke-opacity: 0.3"/>
    </g>
    <g id="text_16">
     <!-- Equilibrium -->
     <g transform="translate(391.228047 92.161172) scale(0.095 -0.095)">
      <defs>
       <path id="DejaVuSans-45" d="M 628 4666 
L 3578 4666 
L 3578 4134 
L 1259 4134 
L 1259 2753 
L 3481 2753 
L 3481 2222 
L 1259 2222 
L 1259 531 
L 3634 531 
L 3634 0 
L 628 0 
L 628 4666 
z
" transform="scale(0.015625)"/>
       <path id="DejaVuSans-71" d="M 947 1747 
Q 947 1113 1208 752 
Q 1469 391 1925 391 
Q 2381 391 2643 752 
Q 2906 1113 2906 1747 
Q 2906 2381 2643 2742 
Q 2381 3103 1925 3103 
Q 1469 3103 1208 2742 
Q 947 2381 947 1747 
z
M 2906 525 
Q 2725 213 2448 61 
Q 2172 -91 1784 -91 
Q 1150 -91 751 415 
Q 353 922 353 1747 
Q 353 2572 751 3078 
Q 1150 3584 1784 3584 
Q 2172 3584 2448 3432 
Q 2725 3281 2906 2969 
L 2906 3500 
L 3481 3500 
L 3481 -1331 
L 2906 -1331 
L 2906 525 
z
" transform="scale(0.015625)"/>
       <path id="DejaVuSans-75" d="M 544 1381 
L 544 3500 
L 1119 3500 
L 1119 1403 
Q 1119 906 1312 657 
Q 1506 409 1894 409 
Q 2359 409 2629 706 
Q 2900 1003 2900 1516 
L 2900 3500 
L 3475 3500 
L 3475 0 
L 2900 0 
L 2900 538 
Q 2691 219 2414 64 
Q 2138 -91 1772 -91 
Q 1169 -91 856 284 
Q 544 659 544 1381 
z
M 1991 3584 
L 1991 3584 
z
" transform="scale(0.015625)"/>
       <path id="DejaVuSans-69" d="M 603 3500 
L 1178 3500 
L 1178 0 
L 603 0 
L 603 3500 
z
M 603 4863 
L 1178 4863 
L 1178 4134 
L 603 4134 
L 603 4863 
z
" transform="scale(0.015625)"/>
       <path id="DejaVuSans-62" d="M 3116 1747 
Q 3116 2381 2855 2742 
Q 2594 3103 2138 3103 
Q 1681 3103 1420 2742 
Q 1159 2381 1159 1747 
Q 1159 1113 1420 752 
Q 1681 391 2138 391 
Q 2594 391 2855 752 
Q 3116 1113 3116 1747 
z
M 1159 2969 
Q 1341 3281 1617 3432 
Q 1894 3584 2278 3584 
Q 2916 3584 3314 3078 
Q 3713 2572 3713 1747 
Q 3713 922 3314 415 
Q 2916 -91 2278 -91 
Q 1894 -91 1617 61 
Q 1341 213 1159 525 
L 1159 0 
L 581 0 
L 581 4863 
L 1159 4863 
L 1159 2969 
z
" transform="scale(0.015625)"/>
       <path id="DejaVuSans-72" d="M 2631 2963 
Q 2534 3019 2420 3045 
Q 2306 3072 2169 3072 
Q 1681 3072 1420 2755 
Q 1159 2438 1159 1844 
L 1159 0 
L 581 0 
L 581 3500 
L 1159 3500 
L 1159 2956 
Q 1341 3275 1631 3429 
Q 1922 3584 2338 3584 
Q 2397 3584 2469 3576 
Q 2541 3569 2628 3553 
L 2631 2963 
z
" transform="scale(0.015625)"/>
      </defs>
      <use xlink:href="#DejaVuSans-45"/>
      <use xlink:href="#DejaVuSans-71" x="63.183594"/>
      <use xlink:href="#DejaVuSans-75" x="126.660156"/>
      <use xlink:href="#DejaVuSans-69" x="190.039062"/>
      <use xlink:href="#DejaVuSans-6c" x="217.822266"/>
      <use xlink:href="#DejaVuSans-69" x="245.605469"/>
      <use xlink:href="#DejaVuSans-62" x="273.388672"/>
      <use xlink:href="#DejaVuSans-72" x="336.865234"/>
      <use xlink:href="#DejaVuSans-69" x="377.978516"/>
      <use xlink:href="#DejaVuSans-75" x="405.761719"/>
      <use xlink:href="#DejaVuSans-6d" x="469.140625"/>
     </g>
    </g>
    <g id="line2d_24">
     <path d="M 364.628047 102.780391 
L 374.128047 102.780391 
L 383.628047 102.780391 
" style="fill: none; stroke: #d62728; stroke-width: 1.5; stroke-linecap: square"/>
    </g>
    <g id="text_17">
     <!-- ABM $i$ -->
     <g transform="translate(391.228047 106.105391) scale(0.095 -0.095)">
      <defs>
       <path id="DejaVuSans-Oblique-69" d="M 1172 4863 
L 1747 4863 
L 1606 4134 
L 1031 4134 
L 1172 4863 
z
M 909 3500 
L 1484 3500 
L 800 0 
L 225 0 
L 909 3500 
z
" transform="scale(0.015625)"/>
      </defs>
      <use xlink:href="#DejaVuSans-41" transform="translate(0 0.015625)"/>
      <use xlink:href="#DejaVuSans-42" transform="translate(68.408203 0.015625)"/>
      <use xlink:href="#DejaVuSans-4d" transform="translate(137.011719 0.015625)"/>
      <use xlink:href="#DejaVuSans-20" transform="translate(223.291016 0.015625)"/>
      <use xlink:href="#DejaVuSans-Oblique-69" transform="translate(255.078125 0.015625)"/>
     </g>
    </g>
    <g id="line2d_25">
     <path d="M 364.628047 116.724609 
L 374.128047 116.724609 
L 383.628047 116.724609 
" style="fill: none; stroke-dasharray: 1.5,2.475; stroke-dashoffset: 0; stroke: #000000; stroke-width: 1.5"/>
    </g>
    <g id="text_18">
     <!-- Cont. $i$ -->
     <g transform="translate(391.228047 120.049609) scale(0.095 -0.095)">
      <use xlink:href="#DejaVuSans-43" transform="translate(0 0.015625)"/>
      <use xlink:href="#DejaVuSans-6f" transform="translate(69.824219 0.015625)"/>
      <use xlink:href="#DejaVuSans-6e" transform="translate(131.005859 0.015625)"/>
      <use xlink:href="#DejaVuSans-74" transform="translate(194.384766 0.015625)"/>
      <use xlink:href="#DejaVuSans-2e" transform="translate(233.59375 0.015625)"/>
      <use xlink:href="#DejaVuSans-20" transform="translate(265.380859 0.015625)"/>
      <use xlink:href="#DejaVuSans-Oblique-69" transform="translate(297.167969 0.015625)"/>
     </g>
    </g>
    <g id="line2d_26">
     <path d="M 364.628047 130.668828 
L 383.628047 130.668828 
" style="fill: none; stroke-dasharray: 5.55,2.4; stroke-dashoffset: 0; stroke: #d62728; stroke-opacity: 0.5; stroke-width: 1.5"/>
    </g>
    <g id="text_19">
     <!-- $\pm R_i$ -->
     <g transform="translate(391.228047 133.993828) scale(0.095 -0.095)">
      <use xlink:href="#DejaVuSans-b1" transform="translate(0 0.09375)"/>
      <use xlink:href="#DejaVuSans-Oblique-52" transform="translate(83.789062 0.09375)"/>
      <use xlink:href="#DejaVuSans-Oblique-69" transform="translate(153.271484 -16.3125) scale(0.7)"/>
     </g>
    </g>
   </g>
  </g>
 </g>
 <defs>
  <clipPath id="p6e3169b0dc">
   <rect x="63" y="34.56" width="390.6" height="221.76"/>
  </clipPath>
 </defs>
</svg>
